<svg width="720" height="720" viewBox="0 0 720 720" fill="none" xmlns="http://www.w3.org/2000/svg">
<path d="M1.59666 260.384C-33.0343 263.088 -67.648 256.669 -98.7773 242.235V263.038C-78.7873 271.356 -57.6174 276.759 -35.9986 278.955C-53.4894 307.379 -64.3812 339.557 -67.7544 372.777C-77.6705 366.668 -88.0562 361.382 -98.7773 356.921V377.718C-80.869 386.019 -64.1105 396.965 -49.1757 410.374C-53.4402 355.83 -35.1166 301.291 1.59666 260.384Z" fill="#ECECEC"/>
<path d="M-98.7773 652.217V673.02C-78.7873 681.339 -57.618 686.741 -35.9986 688.937C-42.1036 698.858 -47.385 709.244 -51.8427 719.964H-31.0441C-22.7469 702.059 -11.8071 685.301 1.59666 670.366C-33.0349 673.071 -67.6485 666.652 -98.7773 652.217Z" fill="#ECECEC"/>
<path d="M360.644 0.391846C357.937 -34.239 364.347 -68.8617 378.775 -100H357.977C349.663 -80.0063 344.261 -58.8307 342.066 -37.2056C313.661 -54.7065 281.472 -65.6064 248.265 -68.9682C254.37 -78.8898 259.653 -89.2777 264.112 -100H243.315C235.016 -82.0919 224.074 -65.3327 210.67 -50.3976C265.215 -54.6689 319.747 -36.3298 360.644 0.391846Z" fill="#ECECEC"/>
<path d="M720.95 242.277C703.041 233.973 686.28 223.025 671.343 209.613C675.613 264.17 657.278 318.714 620.565 359.621C655.195 356.909 689.816 363.325 720.95 377.759V356.963C700.957 348.642 679.778 343.239 658.16 341.05C675.65 312.627 686.554 280.442 689.91 247.217C699.835 253.33 710.225 258.617 720.95 263.079V242.277Z" fill="#ECECEC"/>
<path d="M720.933 303.873V283.574C715.355 281.466 709.849 279.171 704.445 276.659C700.654 293.805 694.983 310.554 687.597 326.475C698.926 328.982 710.076 332.326 720.933 336.433V316.126C718.467 315.272 715.994 314.439 713.511 313.662C714.847 309.992 716.1 306.306 717.256 302.58C718.478 303.025 719.706 303.447 720.933 303.873Z" fill="#ECECEC"/>
<path d="M653.181 720H673.978C682.294 700.005 687.696 678.826 689.88 657.199C699.805 663.312 710.196 668.6 720.921 673.061V652.259C703.011 643.955 686.251 633.007 671.313 619.595C674.024 654.233 667.611 688.859 653.181 720Z" fill="#ECECEC"/>
<path d="M694.5 719.982H714.801C715.656 717.52 716.486 715.051 717.258 712.561C718.48 713.007 719.708 713.429 720.935 713.855V693.556C715.358 691.448 709.852 689.153 704.448 686.641C701.942 697.971 698.6 709.122 694.5 719.982Z" fill="#ECECEC"/>
<path d="M373.822 278.991C356.331 307.414 345.439 339.592 342.066 372.813C313.661 355.312 281.472 344.412 248.265 341.05C265.756 312.626 276.66 280.442 280.015 247.216C308.438 264.722 340.609 275.617 373.822 278.991ZM210.67 359.621C265.215 355.349 319.747 373.689 360.644 410.41C356.38 355.865 374.704 301.327 411.417 260.42C356.866 264.679 302.345 246.334 261.447 209.613C265.718 264.17 247.383 318.714 210.67 359.621Z" fill="#ECECEC"/>
<path d="M307.361 302.58C311.031 303.916 314.716 305.168 318.447 306.336C317.105 309.995 315.859 313.693 314.696 317.407C311.033 316.083 307.33 314.825 303.617 313.662C304.953 309.992 306.205 306.305 307.361 302.58ZM327.502 343.346C331.305 326.194 336.964 309.45 344.362 293.523C327.221 289.731 310.474 284.059 294.551 276.659C290.759 293.805 285.089 310.554 277.702 326.475C294.844 330.267 311.59 335.939 327.502 343.346Z" fill="#ECECEC"/>
<path d="M261.519 619.595C264.229 654.232 257.816 688.859 243.386 719.999H264.184C272.499 700.004 277.902 678.826 280.085 657.198C308.508 674.705 340.68 685.599 373.893 688.973C367.788 698.893 362.506 709.279 358.049 719.999H378.847C387.144 702.094 398.084 685.337 411.487 670.402C356.937 674.661 302.416 656.316 261.519 619.595Z" fill="#ECECEC"/>
<path d="M284.605 719.982H304.907C305.762 717.52 306.592 715.051 307.364 712.561C311.033 713.898 314.719 715.15 318.45 716.319C318.004 717.534 317.585 718.759 317.159 719.982H337.459C339.564 714.409 341.856 708.906 344.364 703.505C327.223 699.713 310.477 694.041 294.553 686.641C292.048 697.971 288.705 709.122 284.605 719.982Z" fill="#ECECEC"/>
<path d="M23.9329 51.1773L103.955 203.261C116.199 226.555 107.232 255.474 83.9423 267.735C14.0869 304.503 -12.8399 391.272 23.9329 461.156L40.8245 452.265C40.8251 452.266 40.8256 452.267 40.8262 452.268H40.8274C8.95764 391.699 32.2873 316.497 92.8294 284.62C125.433 267.468 137.996 226.982 120.835 194.358C120.849 194.358 40.8274 42.2883 40.8274 42.2883C15.659 -5.52757 24.9191 -62.4586 59.7202 -100H35.0451C3.90764 -57.2213 -2.32807 1.28278 23.9329 51.1773Z" fill="#ECECEC"/>
<path d="M7.02552 60.079C-20.4877 7.78533 -16.5303 -52.8373 12.1154 -100H-9.78851C-36.5961 -48.8929 -38.7148 14.1421 -9.86891 68.968C-14.532 71.4197 -20.3148 69.6344 -22.766 64.9698C-40.4864 31.2802 -67.3865 5.49324 -98.7773 -10.9917V10.9302C-74.5147 25.6697 -53.8098 46.9523 -39.6471 73.8588C-32.3061 87.8381 -14.9582 93.2224 -0.981819 85.866L7.90469 102.763L24.7615 93.7865" fill="#ECECEC"/>
<path d="M564.466 176.59C564.466 176.591 564.466 176.591 564.466 176.592L547.575 185.483C569.636 227.408 553.474 279.472 511.559 301.54C460.33 328.5 440.597 392.135 467.551 443.375L547.573 595.459C569.637 637.384 553.475 689.438 511.559 711.507C506.789 714.025 502.299 716.851 498.076 719.956H533.929C574.953 689.704 588.916 633.04 564.467 586.556L484.446 434.487C462.382 392.561 478.543 340.494 520.46 318.439C571.689 291.465 591.434 227.831 564.467 176.59" fill="#ECECEC"/>
<path d="M552.01 398.94C549.545 394.275 551.343 388.492 556.007 386.039C644.502 339.45 678.597 229.545 632.032 141.043C633.489 140.273 633.487 140.273 632.03 141.043L615.127 149.94C656.797 229.139 626.286 327.47 547.12 369.141C533.144 376.498 527.76 393.849 535.115 407.829L615.123 559.899C642.637 612.192 638.68 672.815 610.034 719.978H631.938C658.758 668.87 660.877 605.835 632.032 551.01C636.695 548.557 642.464 550.343 644.915 555.008C662.649 588.697 689.549 614.498 720.953 630.969V609.06C696.677 594.321 675.972 573.025 661.809 546.119C654.455 532.139 637.108 526.755 623.131 534.112L614.244 517.214C637.534 504.953 666.446 513.935 678.704 537.23C689.216 557.207 703.832 573.665 720.953 586.139V561.458C710.947 552.182 702.3 541.081 695.598 528.328C678.438 495.717 637.96 483.15 605.358 500.315L596.457 483.417C638.373 461.348 690.428 477.513 712.493 519.439C714.998 524.223 717.835 528.727 720.953 532.939V497.09C690.695 456.044 634.043 442.064 587.57 466.532L578.684 449.634C626.489 424.46 683.421 433.722 720.953 468.544V443.864C678.184 412.706 619.681 406.469 569.783 432.722L560.897 415.838C613.178 388.319 673.801 392.276 720.953 420.942V399.02C669.857 372.193 606.823 370.074 552.01 398.94Z" fill="#ECECEC"/>
<path d="M598.301 158.778C598.302 158.78 598.302 158.782 598.304 158.784L581.412 167.675C613.275 228.243 589.932 303.44 529.392 335.316C496.79 352.467 484.226 392.967 501.386 425.577L581.408 577.647C606.562 625.463 597.303 682.407 562.501 719.935H587.177C618.328 677.17 624.563 618.653 598.302 568.758L518.28 416.675C506.022 393.38 515.003 364.461 538.279 352.201C608.135 315.432 635.075 228.663 598.302 158.778" fill="#ECECEC"/>
<path d="M34.3537 153.524L25.4671 136.639C-16.41 158.532 -68.3189 142.353 -90.3304 100.502C-92.8482 95.7309 -95.6731 91.2399 -98.7773 87.0288V122.877C-68.5682 163.844 -12.0634 177.829 34.3537 153.524Z" fill="#ECECEC"/>
<path d="M52.0947 187.393L43.2033 170.499C-4.55737 195.515 -61.3562 186.232 -98.8283 151.48L-98.8296 176.161C-56.1382 207.27 2.25703 213.516 52.0947 187.393Z" fill="#ECECEC"/>
<path d="M60.9714 204.22C8.75151 231.613 -51.7535 227.63 -98.8391 199.019L-98.8399 220.928C-47.814 247.715 15.1044 249.862 69.8662 221.12L60.9714 204.22Z" fill="#ECECEC"/>
<path d="M91.4822 15.6081L171.504 167.691C203.374 228.247 180.045 303.449 119.502 335.327C86.9227 352.466 74.3541 392.918 91.4458 425.516L108.355 416.614C96.1528 393.332 105.123 364.46 128.389 352.212C198.245 315.443 225.171 228.674 188.399 158.789L108.377 6.71912C96.1325 -16.5756 105.099 -45.508 128.389 -57.7547C148.361 -68.2699 164.816 -82.8758 177.273 -100H152.598C143.325 -89.9922 132.239 -81.3566 119.502 -74.6533C86.899 -57.5019 74.335 -17.002 91.4822 15.6081Z" fill="#ECECEC"/>
<path d="M370.172 73.8587C377.527 87.8387 394.874 93.2224 408.851 85.8659L560.887 5.82645C613.169 -21.6932 673.791 -17.7217 720.943 10.9307V-10.9784C669.847 -37.805 606.813 -39.9235 552 -11.0715C549.535 -15.7362 551.334 -21.5063 555.997 -23.972C589.665 -41.6961 615.46 -68.6025 631.928 -100H610.024C595.275 -75.7322 574.011 -55.0229 547.11 -40.8567C533.133 -33.5002 527.751 -16.1492 535.105 -2.16927L518.211 6.71969C505.953 -16.5756 514.934 -45.5074 538.21 -57.7547C558.182 -68.2693 574.637 -82.8752 587.107 -100H562.432C553.145 -89.9916 542.06 -81.356 529.323 -74.6527C496.72 -57.5013 484.156 -17.002 501.317 15.6081L484.422 24.5104C462.358 -17.4283 478.52 -69.4825 520.436 -91.5513C525.206 -94.0563 529.696 -96.8951 533.906 -100H498.052C457.042 -69.7353 443.079 -13.0709 467.528 33.3993L450.634 42.2883C425.479 -5.5276 434.739 -62.4592 469.54 -100H444.864C413.714 -57.2219 407.492 1.28217 433.739 51.1767L416.858 60.079C389.345 7.78533 393.302 -52.8373 421.948 -100H400.031C373.223 -48.8929 371.105 14.1421 399.95 68.9679C395.287 71.4203 389.518 69.6344 387.067 64.9698C340.488 -23.5456 230.607 -57.6483 142.112 -11.0715C139.66 -15.7362 141.446 -21.5063 146.109 -23.972C179.791 -41.6961 205.572 -68.6025 222.054 -100H200.136C185.401 -75.7322 164.122 -55.0229 137.222 -40.8567C123.259 -33.5002 117.863 -16.1492 125.218 -2.16927L205.24 149.901C246.916 229.101 216.391 327.438 137.222 369.11C123.282 376.454 117.882 393.76 125.184 407.728L141.937 398.908L142.018 398.957L142.11 398.908C142.111 398.908 142.112 398.908 142.112 398.908C139.661 394.243 141.446 388.46 146.109 386.008C234.604 339.418 268.713 229.514 222.133 141.012C226.797 138.546 232.579 140.345 235.031 145.009C281.596 233.511 391.476 267.627 479.971 221.038V221.038L471.95 203.685L471.086 204.14C391.903 245.825 293.588 215.308 251.912 136.108C244.571 122.141 227.21 116.744 213.247 124.1L204.347 107.215C227.636 94.9551 256.562 103.924 268.819 127.219C305.58 197.09 392.329 224.023 462.199 187.255C462.199 187.241 614.235 107.215 614.235 107.215C637.524 94.9551 666.436 103.924 678.694 127.219C689.207 147.195 703.809 163.667 720.943 176.141V151.46C710.938 142.171 702.29 131.083 695.589 118.33C678.428 85.7196 637.951 73.1524 605.348 90.3171L453.298 170.343C392.756 202.221 317.57 178.886 285.701 118.33C268.553 85.7196 228.063 73.1524 195.46 90.3171L186.573 73.4191C228.489 51.3503 280.545 67.5153 302.595 109.427C329.562 160.668 393.182 180.418 444.412 153.445C444.412 153.459 596.447 73.4191 596.447 73.4191C638.363 51.3503 690.419 67.5153 712.483 109.427C714.987 114.212 717.826 118.716 720.943 122.94V87.0791C690.685 46.0331 634.033 32.0531 587.561 56.5211L435.525 136.561C393.609 158.629 341.553 142.464 319.489 100.539C292.536 49.2977 228.915 29.5475 177.686 56.5211L168.786 39.623C229.342 7.74541 304.527 31.0939 336.384 91.65C353.544 124.26 394.022 136.827 426.624 119.663L578.674 39.623C626.479 14.4487 683.41 23.7241 720.943 58.5465V33.8523C678.174 2.69492 619.67 -3.54211 569.773 22.7245L417.738 102.764C394.448 115.025 365.536 106.042 353.278 82.761C316.505 12.8763 229.754 -14.0567 159.899 22.7245L151.013 5.82645C230.181 -35.8461 328.51 -5.328 370.172 73.8587Z" fill="#ECECEC"/>
<path d="M101.67 301.531C50.4637 328.478 30.7138 392.068 57.626 443.296L74.5083 434.409C52.5107 392.495 68.663 340.473 110.557 318.429C161.786 291.456 181.532 227.822 154.564 176.581L74.5563 24.4977C52.4922 -17.4283 68.6405 -69.4819 110.557 -91.5507C115.326 -94.0563 119.817 -96.8945 124.027 -100H88.1863C47.1628 -69.7353 33.213 -13.0703 57.6619 33.3994L137.671 185.469C159.734 227.395 143.586 279.462 101.67 301.531Z" fill="#ECECEC"/>
<path d="M496.87 212.247C496.848 212.204 496.829 212.161 496.807 212.119L497.003 212.016L497.004 212.015L496.806 212.119C496.828 212.162 496.847 212.205 496.87 212.248L496.87 212.247Z" fill="#ECECEC"/>
<path d="M502.635 284.625C535.126 267.533 547.712 227.268 530.814 194.703L513.912 203.599C525.912 226.837 516.915 255.538 493.748 267.74C423.893 304.508 396.952 391.278 433.726 461.163L513.747 613.233C526.005 636.527 517.025 665.459 493.748 677.707C473.776 688.221 457.321 702.827 444.851 719.952H469.526C478.799 709.943 489.885 701.308 502.635 694.605C535.238 677.454 547.803 636.954 530.641 604.344L450.62 452.274C418.75 391.704 442.093 316.502 502.635 284.625Z" fill="#ECECEC"/>
<path d="M425.446 486.285L408.904 495.865H408.906L417.793 512.749C394.503 525.01 365.591 516.041 353.333 492.746C316.56 422.875 229.81 395.942 159.954 432.71C159.954 432.723 7.91796 512.749 7.91796 512.749C-15.3851 525.01 -44.2969 516.041 -56.5549 492.746C-67.0534 472.77 -81.6562 456.311 -98.7773 443.837V468.518C-88.7716 477.807 -80.1506 488.895 -73.4354 501.635C-56.2883 534.245 -15.7981 546.812 16.805 529.647L168.841 449.621C229.397 417.744 304.582 441.079 336.439 501.635C353.599 534.245 394.077 546.812 426.68 529.647L435.58 546.545C393.664 568.614 341.608 552.449 319.544 510.537C292.591 459.296 228.971 439.546 177.741 466.519C177.727 466.506 25.6921 546.545 25.6921 546.545C-16.2238 568.614 -68.2796 552.449 -90.3304 510.537C-92.8482 505.766 -95.6731 501.262 -98.7773 497.051V532.913C-68.519 573.932 -11.8806 587.898 34.5786 563.443C34.5919 563.443 186.628 483.404 186.628 483.404C228.544 461.335 280.6 477.501 302.65 519.426C329.617 570.667 393.237 590.417 444.467 563.443L453.353 580.342C392.811 612.219 317.626 588.871 285.755 528.315C268.608 495.704 228.117 483.138 195.515 500.303L43.479 580.342C-4.32614 605.502 -61.2445 596.254 -98.7773 561.445V586.126C-56.0216 617.27 2.48217 623.507 52.3661 597.24L204.401 517.201C227.691 504.94 256.617 513.922 268.875 537.217C305.634 607.088 392.385 634.021 462.254 597.24L471.141 614.138C391.958 655.811 293.643 625.293 251.967 546.106C244.626 532.126 227.265 526.742 213.302 534.099L61.2526 614.138C8.98396 641.658 -51.6252 637.686 -98.7773 609.048V630.956C-47.6811 657.77 15.3394 659.889 70.153 631.036C72.6042 635.701 70.8193 641.484 66.1557 643.937C32.4733 661.661 6.67905 688.567 -9.78851 719.965H12.1154C26.8646 695.697 48.1426 674.987 75.0428 660.821C89.0059 653.465 94.4017 636.114 87.0474 622.134L103.928 613.245C116.186 636.54 107.219 665.473 83.9293 677.719C63.9572 688.234 47.5029 702.84 35.0321 719.965H59.7071C68.9939 709.957 80.0789 701.321 92.8163 694.618C125.419 677.466 137.983 636.966 120.822 604.356L137.73 595.467C159.781 637.393 143.633 689.447 101.717 711.516C96.9467 714.034 92.4433 716.86 88.2331 719.965H124.074C165.097 689.713 179.073 633.049 154.611 586.565L171.506 577.677C196.674 625.493 187.414 682.437 152.6 719.965H177.275C208.425 677.2 214.661 618.682 188.4 568.788L205.294 559.886C232.808 612.179 228.85 672.802 200.191 719.965H222.108C248.916 668.857 251.034 605.822 222.189 550.997C226.852 548.545 232.634 550.33 235.086 554.995C281.652 643.51 391.532 677.613 480.027 631.036C482.492 635.701 480.693 641.484 476.03 643.937C442.361 661.661 416.567 688.567 400.086 719.965H422.003C436.739 695.697 458.017 674.987 484.917 660.821C498.893 653.465 504.276 636.114 496.922 622.134" fill="#ECECEC"/>
<path d="M484.919 250.876C498.895 243.52 504.278 226.169 496.923 212.189L513.818 203.3L530.716 194.406L530.712 194.398L547.607 185.509C547.607 185.511 547.608 185.512 547.608 185.514L564.502 176.622C564.501 176.621 564.501 176.621 564.5 176.62L581.395 167.718C581.397 167.721 581.398 167.724 581.4 167.727L598.293 158.835C598.292 158.833 598.29 158.831 598.289 158.829L615.17 149.94C615.172 149.943 615.173 149.946 615.174 149.949L632.078 141.051C636.742 138.586 642.511 140.385 644.962 145.05C662.696 178.739 689.596 204.526 721 221.011V199.102C696.724 184.35 676.02 163.067 661.856 136.147C654.501 122.181 637.154 116.784 623.178 124.14L472.008 203.724L480.029 221.078C482.494 225.756 480.695 231.526 476.032 233.978C387.537 280.567 353.441 390.473 400.008 478.987C395.344 481.44 389.575 479.64 387.123 474.99C340.544 386.474 230.664 352.358 142.169 398.948L50.5309 447.189L40.8161 452.308C40.8155 452.307 40.8149 452.305 40.8143 452.304L23.9217 461.197L7.02724 470.086C-34.6492 390.886 -4.1243 292.548 75.0445 250.876C89.0076 243.52 94.4035 226.169 87.0491 212.189L24.765 93.8268L7.90639 102.804C-15.3834 115.064 -44.2952 106.082 -56.5532 82.8008C-67.0517 62.8245 -81.655 46.3662 -98.7773 33.8921V58.5729C-88.7699 67.8484 -80.1489 78.9363 -73.4337 91.6898C-59.4533 118.278 -29.9549 131.539 -1.86562 126.227L16.8068 119.702L70.1547 221.078C72.606 225.756 70.821 231.526 66.1574 233.978C-22.338 280.567 -56.4462 390.473 -9.8672 478.987L-1.12991 495.96C-1.08018 495.934 -1.02987 495.912 -0.980125 495.886L151.069 415.846C230.238 374.161 328.566 404.679 370.229 483.879C377.584 497.845 394.931 503.242 408.907 495.886L425.449 486.306L416.915 470.086C375.239 390.886 405.75 292.548 484.919 250.876Z" fill="#ECECEC"/>
</svg>
