<svg width="685" height="1195" viewBox="0 0 685 1195" fill="none" xmlns="http://www.w3.org/2000/svg">
<path d="M605.966 985.642L313.956 491.391L239.389 344.914L494.798 120.529L467.082 104.766L233.689 341.673L309.977 489.128L596.208 980.093L605.966 985.642Z" fill="#F5F5F5"/>
<path d="M636.471 1003.26L326.468 498.685L257.214 355.201L580.931 169.561L554.544 154.555L251.789 352.116L322.681 496.531L627.183 997.974L636.471 1003.26Z" fill="#F5F5F5"/>
<path d="M668.157 1021.55L340.154 506.652L276.216 366.164L668.274 219.292L643.221 205.044L271.066 363.235L336.556 504.606L659.337 1016.53L668.157 1021.55Z" fill="#F5F5F5"/>
<path d="M698.669 1039.16L352.656 513.939L294.041 376.45L754.473 268.365L730.752 254.875L289.162 373.676L349.252 512.003L690.318 1034.41L698.669 1039.16Z" fill="#F5F5F5"/>
<path d="M729.182 1056.78L365.156 521.223L311.861 386.734L840.699 317.457L818.313 304.725L307.257 384.116L361.94 519.395L721.299 1052.29L729.182 1056.78Z" fill="#F5F5F5"/>
<path d="M759.697 1074.39L377.649 528.504L329.684 397.018L926.959 366.57L905.906 354.596L325.356 394.557L374.628 526.785L752.286 1070.18L759.697 1074.39Z" fill="#F5F5F5"/>
<path d="M791.394 1092.68L391.316 536.458L351.029 409.314L1028.88 424.598L994.708 405.164L344.625 405.671L388.488 534.85L784.451 1088.73L791.394 1092.68Z" fill="#F5F5F5"/>
<path d="M823.104 1110.97L405.976 544.98L372.985 421.912L1141.39 488.67L1099.85 465.042L365.441 417.622L401.191 542.259L815.458 1106.62L823.104 1110.97Z" fill="#F5F5F5"/>
</svg>
