<svg width="374" height="372" viewBox="0 0 374 372" fill="none" xmlns="http://www.w3.org/2000/svg">
<mask id="mask0" style="mask-type:alpha" maskUnits="userSpaceOnUse" x="0" y="0" width="377" height="372">
<rect width="377" height="372" fill="#1A4A58"/>
</mask>
<g mask="url(#mask0)">
<path d="M299.157 179.62C325.922 181.503 352.681 177.045 376.746 167.011L376.746 181.475C361.294 187.258 344.928 191.015 328.215 192.542C341.74 212.297 350.165 234.684 352.763 257.778C360.431 253.532 368.459 249.858 376.746 246.757L376.746 261.221C362.906 266.993 349.953 274.602 338.41 283.925C341.711 245.99 327.538 208.064 299.157 179.62Z" fill="#1A4A58"/>
<path d="M376.746 195.747L376.746 209.866C374.846 210.46 372.938 211.037 371.022 211.577C372.046 214.124 373.018 216.7 373.916 219.282C374.857 218.974 375.802 218.683 376.746 218.387L376.746 232.506C372.439 233.97 368.187 235.563 364.013 237.305C361.083 225.384 356.699 213.737 350.975 202.671C359.735 200.923 368.352 198.6 376.746 195.747Z" fill="#1A4A58"/>
<path d="M259.907 413.797L142.368 358.143C124.364 349.627 102.014 355.864 92.5381 372.061C64.1217 420.644 -2.939 439.371 -56.9497 413.797L-50.0775 402.049C-50.0785 402.049 -50.0793 402.048 -50.0802 402.048L-50.0802 402.047C-3.26852 424.212 54.8521 407.986 79.4886 365.881C92.7443 343.206 124.035 334.468 149.248 346.403C149.248 346.394 266.777 402.047 266.777 402.047C303.732 419.551 347.732 413.111 376.746 388.907L376.746 406.068C343.684 427.724 298.469 432.061 259.907 413.797Z" fill="#1A4A58"/>
<path d="M287.397 366.818L169.858 311.164C123.057 288.999 64.9359 305.224 40.2989 347.331C27.0531 369.989 -4.211 378.73 -29.4046 366.843L-22.5249 355.083C-4.5307 363.569 17.7835 357.331 27.2494 341.15C55.6663 292.566 122.727 273.839 176.738 299.414L294.267 355.068C312.271 363.583 334.631 357.347 344.096 341.15C352.223 327.26 363.511 315.816 376.746 307.152L376.746 324.313C369.011 330.762 362.337 338.472 357.157 347.331C343.901 370.005 312.6 378.743 287.397 366.818Z" fill="#1A4A58"/>
<path d="M242.377 172.994C231.573 167.879 227.412 155.814 233.098 146.094L294.957 40.356C316.226 3.99493 313.156 -38.1668 291.012 -70.9602L307.945 -70.9602C328.678 -35.4238 330.315 8.41501 308.017 46.5368C311.622 48.2509 316.081 46.9998 317.987 43.7567C331.685 20.3409 352.48 2.40118 376.746 -9.05209L376.746 6.18204C357.99 16.4398 341.985 31.2286 331.037 49.9371C325.351 59.6578 311.941 63.4013 301.137 58.2865L294.267 70.0363C312.271 78.5611 334.631 72.3155 344.096 56.1272C352.223 42.237 363.511 30.793 376.746 22.1202L376.746 39.2812C369.011 45.7399 362.337 53.4493 357.156 62.308C343.901 84.9824 312.6 93.7208 287.397 81.7856L280.517 93.5358C312.93 108.881 353.16 97.6405 370.216 68.4884C372.152 65.1713 374.346 62.0485 376.746 59.1204L376.746 84.056C353.356 112.578 309.562 122.289 273.647 105.285L266.777 117.035C303.732 134.53 347.732 128.089 376.746 103.886L376.746 121.047C343.685 142.712 298.469 147.039 259.908 128.785L253.027 140.525C293.443 159.66 340.296 156.908 376.746 136.985L376.746 152.228C337.247 170.872 288.53 172.345 246.157 152.284C244.262 155.527 245.642 159.539 249.247 161.244C317.657 193.639 344.014 270.059 308.017 331.606C311.622 333.311 316.081 332.069 317.987 328.826C331.685 305.4 352.48 287.47 376.746 276.008L376.746 291.251C357.99 301.499 341.985 316.298 331.037 335.006C325.351 344.717 311.941 348.47 301.137 343.355L183.608 287.702C122.397 258.717 46.3963 279.946 14.1896 335.006C8.51349 344.702 -4.86154 348.457 -15.6567 343.379L-8.84 331.727L-8.87842 331.671L-8.84042 331.607C-8.84085 331.607 -8.84042 331.606 -8.84042 331.607C-5.23578 333.311 -0.765534 332.069 1.12933 328.826C37.1369 267.279 122.078 243.557 190.478 275.952C192.383 272.709 190.993 268.687 187.388 266.983C118.988 234.597 92.6213 158.178 128.628 96.6312L142.04 102.209L141.688 102.811C109.471 157.881 133.057 226.257 194.268 255.242C205.062 260.348 209.233 272.422 203.548 282.133L216.598 288.323C226.073 272.125 219.141 252.008 201.138 243.483C147.137 217.917 126.321 157.584 154.738 108.992C154.749 108.992 216.598 3.25357 216.598 3.25357C226.073 -12.9436 219.141 -33.0516 201.138 -41.5768C185.699 -48.8879 172.969 -59.0435 163.328 -70.9602L182.403 -70.9602C189.582 -64.0014 198.151 -57.9872 208.008 -53.3265C233.211 -41.3914 242.923 -13.2405 229.657 9.43436L167.808 115.182C143.171 157.287 161.206 209.578 208.008 231.743C233.211 243.668 242.923 271.829 229.657 294.503L242.717 300.684C259.773 271.532 247.28 235.328 214.888 219.993C175.286 201.238 160.022 156.991 180.868 121.362C180.858 121.362 242.717 15.6244 242.717 15.6244C259.773 -13.5273 247.28 -49.7311 214.888 -65.0763C211.19 -66.8181 207.709 -68.792 204.444 -70.9602L232.16 -70.9602C263.883 -49.9161 274.687 -10.516 255.777 21.8048L193.918 127.543C176.862 156.694 189.355 192.898 221.757 208.243C261.36 226.989 276.624 271.236 255.777 306.865L268.837 313.055C293.474 270.939 275.429 218.649 228.627 196.493C203.424 184.559 193.712 156.407 206.978 133.733L268.837 27.9856C288.293 -5.26199 281.125 -44.8569 254.212 -70.9602L273.297 -70.9602C297.377 -41.2152 302.198 -0.526916 281.897 34.1756L220.038 139.913C210.562 156.111 217.504 176.219 235.497 184.744C289.508 210.319 310.324 270.652 281.897 319.235L294.957 325.415C327.164 270.355 303.578 201.97 242.377 172.994Z" fill="#1A4A58"/>
<path d="M66.4185 359.732C45.5919 395.345 -3.5538 409.081 -43.1464 390.364L-36.2777 378.623C-3.88419 393.922 36.3218 382.688 53.3587 353.552C74.205 317.923 123.386 304.19 162.988 322.945L280.527 378.589C312.93 393.935 353.16 382.704 370.216 353.552C372.152 350.235 374.346 347.112 376.746 344.184L376.746 369.11C353.356 397.641 309.562 407.343 273.647 390.339L156.118 334.695C123.716 319.35 83.4747 330.581 66.4185 359.732Z" fill="#1A4A58"/>
<path d="M135.423 84.878C135.456 84.8932 135.489 84.9065 135.522 84.9218L135.602 84.7854L135.603 84.785L135.522 84.9226C135.489 84.9073 135.455 84.894 135.422 84.8784L135.423 84.878Z" fill="#1A4A58"/>
</g>
</svg>
