<svg width="329" height="372" viewBox="0 0 329 372" fill="none" xmlns="http://www.w3.org/2000/svg">
<mask id="mask0" style="mask-type:alpha" maskUnits="userSpaceOnUse" x="-48" y="0" width="377" height="372">
<rect x="329" y="372" width="377" height="372" transform="rotate(-180 329 372)" fill="#1A4A58"/>
</mask>
<g mask="url(#mask0)">
<path d="M29.8428 192.38C3.07801 190.497 -23.6805 194.955 -47.7461 204.989L-47.7461 190.525C-32.2938 184.742 -15.928 180.985 0.785203 179.458C-12.7405 159.703 -21.1646 137.316 -23.7628 114.222C-31.4308 118.468 -39.4592 122.142 -47.7461 125.243L-47.7461 110.779C-33.9056 105.007 -20.9531 97.3977 -9.41037 88.0752C-12.7114 126.01 1.46214 163.936 29.8428 192.38Z" fill="#1A4A58"/>
<path d="M69.0929 -41.7967L186.632 13.857C204.636 22.3726 226.986 16.1363 236.462 -0.0613227C264.878 -48.6444 331.939 -67.3714 385.95 -41.7966L379.078 -30.0489C379.078 -30.0485 379.079 -30.0481 379.08 -30.0477L379.08 -30.0469C332.269 -52.2117 274.148 -35.9863 249.511 6.11947C236.256 28.7943 204.965 37.5323 179.752 25.5971C179.752 25.6064 62.223 -30.0469 62.223 -30.0469C25.268 -47.5511 -18.7318 -41.1108 -47.7461 -16.9074L-47.7461 -34.0684C-14.6841 -55.7239 30.5314 -60.0607 69.0929 -41.7967Z" fill="#1A4A58"/>
<path d="M41.6029 5.18237L159.142 60.836C205.943 83.0008 264.064 66.7759 288.701 24.6693C301.947 2.01134 333.211 -6.72987 358.405 5.15705L351.525 16.9172C333.531 8.43067 311.216 14.669 301.751 30.8501C273.334 79.4335 206.273 98.1605 152.262 72.5858L34.7329 16.9321C16.7294 8.41657 -5.63134 14.6529 -15.0963 30.85C-23.2231 44.7402 -34.5115 56.1842 -47.7461 64.8482L-47.7461 47.6872C-40.0114 41.2377 -33.3373 33.5279 -28.1566 24.6693C-14.901 1.99482 16.3998 -6.74316 41.6029 5.18237Z" fill="#1A4A58"/>
<path d="M86.6225 199.006C97.4271 204.121 101.588 216.186 95.9024 225.906L34.043 331.644C12.7741 368.005 15.8436 410.167 37.9879 442.96L21.0552 442.96C0.321951 407.424 -1.31538 363.585 20.9832 325.463C17.3781 323.749 12.9186 325 11.013 328.243C-2.68534 351.659 -23.4802 369.599 -47.7461 381.052L-47.7461 365.818C-28.9905 355.56 -12.9851 340.771 -2.03657 322.063C3.64895 312.342 17.0589 308.599 27.8634 313.713L34.7333 301.964C16.7293 293.439 -5.63093 299.684 -15.0964 315.873C-23.2227 329.763 -34.511 341.207 -47.7461 349.88L-47.7461 332.719C-40.011 326.26 -33.3369 318.551 -28.1562 309.692C-14.9005 287.018 16.3998 278.279 41.6028 290.214L48.4831 278.464C16.0703 263.119 -24.1603 274.36 -41.2165 303.512C-43.1525 306.829 -45.3464 309.952 -47.7461 312.88L-47.7461 287.944C-24.3557 259.422 19.438 249.711 55.353 266.715L62.2229 254.965C25.2679 237.47 -18.7323 243.911 -47.7461 268.114L-47.7461 250.953C-14.6846 229.288 30.5309 224.961 69.0924 243.215L75.9727 231.475C35.557 212.34 -11.2959 215.092 -47.7461 235.015L-47.7461 219.772C-8.24743 201.128 40.4699 199.655 82.8426 219.716C84.7379 216.473 83.3577 212.461 79.7526 210.756C11.3425 178.361 -15.0141 101.941 20.9832 40.3941C17.3781 38.6893 12.9186 39.9311 11.013 43.1742C-2.68532 66.5997 -23.4802 84.5298 -47.7461 95.9923L-47.7461 80.7493C-28.9905 70.5008 -12.9851 55.7023 -2.03655 36.9938C3.64897 27.2827 17.0589 23.5296 27.8634 28.6448L145.392 84.2985C206.603 113.283 282.604 92.0542 314.81 36.9938C320.487 27.2984 333.862 23.5433 344.657 28.6211L337.84 40.2731L337.878 40.329L337.84 40.3934C337.841 40.3934 337.84 40.3938 337.84 40.3934C334.236 38.689 329.766 39.9312 327.871 43.1742C291.863 104.721 206.922 128.443 138.522 96.0478C136.617 99.2913 138.007 103.313 141.612 105.018C210.012 137.403 236.379 213.822 200.372 275.369L186.96 269.791L187.312 269.189C219.529 214.119 195.943 145.743 134.732 116.758C123.938 111.652 119.767 99.5785 125.452 89.8674L112.402 83.6774C102.927 99.875 109.859 119.992 127.862 128.517C181.863 154.083 202.679 214.416 174.262 263.008C174.251 263.008 112.402 368.746 112.402 368.746C102.927 384.944 109.859 405.052 127.862 413.577C143.301 420.888 156.031 431.044 165.672 442.96L146.597 442.96C139.418 436.001 130.849 429.987 120.992 425.327C95.7893 413.391 86.0766 385.24 99.3425 362.566L161.192 256.818C185.829 214.713 167.794 162.422 120.992 140.257C95.7893 128.332 86.0766 100.171 99.3425 77.4966L86.2827 71.3162C69.2266 100.468 81.7199 136.672 114.112 152.007C153.714 170.762 168.978 215.009 148.132 250.638C148.142 250.638 86.2827 356.376 86.2827 356.376C69.2266 385.527 81.7199 421.731 114.112 437.076C117.81 438.818 121.291 440.792 124.556 442.96L96.84 442.96C65.1171 421.916 54.3126 382.516 73.2229 350.195L135.082 244.457C152.138 215.306 139.645 179.102 107.243 163.757C67.6402 145.011 52.3761 100.764 73.2229 65.1354L60.1631 58.9454C35.5261 101.061 53.5712 153.351 100.373 175.507C125.576 187.441 135.288 215.593 122.022 238.267L60.1631 344.014C40.7068 377.262 47.8754 416.857 74.7882 442.96L55.7031 442.96C31.6228 413.215 26.8024 372.527 47.1028 337.824L108.962 232.087C118.438 215.889 111.496 195.781 93.5027 187.256C39.4916 161.681 18.6761 101.348 47.1028 52.765L34.043 46.5846C1.83591 101.645 25.4222 170.03 86.6225 199.006Z" fill="#1A4A58"/>
<path d="M262.581 12.2676C283.408 -23.3453 332.554 -37.081 372.146 -18.364L365.278 -6.62274C332.884 -21.9217 292.678 -10.688 275.641 18.4484C254.795 54.0769 205.614 67.8098 166.012 49.0547L48.4733 -6.58937C16.0703 -21.9346 -24.1598 -10.7037 -41.216 18.4484C-43.1524 21.7654 -45.346 24.8882 -47.7461 27.8163L-47.7461 2.88998C-24.3557 -25.641 19.4385 -35.3428 55.353 -18.3391L172.882 37.3053C205.284 52.6501 245.525 41.4193 262.581 12.2676Z" fill="#1A4A58"/>
<path d="M193.577 287.122C193.544 287.107 193.511 287.093 193.478 287.078L193.398 287.215L193.397 287.215L193.478 287.077C193.511 287.093 193.545 287.106 193.578 287.122L193.577 287.122Z" fill="#1A4A58"/>
</g>
</svg>
