<svg width="621" height="438" viewBox="0 0 621 438" fill="none" xmlns="http://www.w3.org/2000/svg">
<path d="M223.989 347.522L167.809 503.819H162.194L222.447 349.688L1.71515 15.0797V7.17682L223.989 347.522Z" fill="#164C59"/>
<path d="M21.5615 -12.8363L230.791 337.896L192.653 503.792H186.657L229.144 340.209L9.75409 -12.8363H21.5615Z" fill="#164C59"/>
<path d="M45.9819 -12.8363L237.687 328.299L217.598 503.794H211.219L235.935 330.76L39.7375 -12.8363H45.9819Z" fill="#164C59"/>
<path d="M70.3117 -12.8363L244.489 318.701L242.455 503.795H235.691L242.632 321.31L63.6895 -12.8363H70.3117Z" fill="#164C59"/>
<path d="M94.6456 -12.8363L251.298 309.106L267.319 503.797H260.174L249.336 311.861L87.6512 -12.8363H94.6456Z" fill="#164C59"/>
<path d="M119.085 -12.8363L258.212 299.512L292.293 503.8H284.762L256.146 302.413L111.718 -12.8363H119.085Z" fill="#164C59"/>
<path d="M143.435 -12.8363L265.035 289.916L317.173 503.802H309.265L262.865 292.964L135.696 -12.8363H143.435Z" fill="#164C59"/>
<path d="M167.784 -12.8363L271.858 280.317L342.053 503.804H333.761L269.581 283.516L159.669 -12.8363H167.784Z" fill="#164C59"/>
<path d="M192.132 -12.8363L278.677 270.721L366.934 503.806H358.26L276.299 274.065L183.643 -12.8363H192.132Z" fill="#164C59"/>
<path d="M149.721 301.073L1.84783 353.915L1.70477 348.742L147.637 299.459L149.721 301.073Z" fill="#164C59"/>
<path d="M156.43 305.525L1.72943 376.052V370.252L152.731 304.773L1.72943 183.512V180.904L156.43 305.525Z" fill="#164C59"/>
<path d="M167.333 312.735L1.72559 401.883V394.986L164.268 311.251L1.72559 172.467V169.384L167.333 312.735Z" fill="#164C59"/>
<path d="M176.092 319.337L1.74426 430.783V422.593L173.407 317.692L1.74426 160.106V156.435L176.092 319.337Z" fill="#164C59"/>
<path d="M184.851 325.969L1.76312 463.27V453.55L182.34 324.067L1.76312 146.203V141.803L184.851 325.969Z" fill="#164C59"/>
<path d="M193.518 332.602L1.68903 499.87V488.335L190.874 330.601L1.68903 130.363V125.027L193.518 332.602Z" fill="#164C59"/>
<path d="M202.277 339.2L38.8475 503.799H26.3283L199.5 337.099L1.70776 112.026V105.477L202.277 339.2Z" fill="#164C59"/>
<path d="M211.036 345.809L74.5803 503.787H63.2538L208.126 343.603L1.72632 90.517V82.3523L211.036 345.809Z" fill="#164C59"/>
<path d="M219.795 352.444L105.693 503.805H95.3168L216.75 350.138L1.74512 64.8158V54.4348L219.795 352.444Z" fill="#164C59"/>
</svg>
