<svg width="701" height="453" viewBox="0 0 701 453" fill="none" xmlns="http://www.w3.org/2000/svg">
<path d="M495.605 330.444L547.122 473.768H552.27L497.019 332.431L699.428 25.5987V18.3518L495.605 330.444Z" fill="#164C59"/>
<path d="M681.228 0L489.367 321.618L524.339 473.742H529.838L490.877 323.739L692.056 0H681.228Z" fill="#164C59"/>
<path d="M658.836 0L483.045 312.817L501.465 473.744H507.316L484.651 315.074L664.562 0H658.836Z" fill="#164C59"/>
<path d="M636.526 0L476.807 304.016L478.672 473.746H484.874L478.509 306.409L642.598 0H636.526Z" fill="#164C59"/>
<path d="M614.211 0L470.562 295.217L455.871 473.747H462.423L472.361 297.744L620.625 0H614.211Z" fill="#164C59"/>
<path d="M591.802 0L464.223 286.42L432.972 473.75H439.877L466.118 289.081L598.557 0H591.802Z" fill="#164C59"/>
<path d="M569.473 0L457.966 277.62L410.156 473.752H417.408L459.956 280.416L576.569 0H569.473Z" fill="#164C59"/>
<path d="M547.145 0L451.71 268.818L387.342 473.753H394.946L453.798 271.752L554.586 0H547.145Z" fill="#164C59"/>
<path d="M524.818 0L445.457 260.019L364.526 473.755H372.48L447.637 263.086L532.602 0H524.818Z" fill="#164C59"/>
<path d="M563.708 287.852L699.306 336.307L699.437 331.563L565.619 286.371L563.708 287.852Z" fill="#164C59"/>
<path d="M557.557 291.934L699.415 356.606V351.288L560.948 291.244L699.415 180.049V177.658L557.557 291.934Z" fill="#164C59"/>
<path d="M547.559 298.545L699.418 380.293V373.969L550.369 297.184L699.418 169.921V167.094L547.559 298.545Z" fill="#164C59"/>
<path d="M539.526 304.599L699.401 406.794V399.284L541.989 303.091L699.401 158.586V155.22L539.526 304.599Z" fill="#164C59"/>
<path d="M531.494 310.68L699.384 436.584V427.671L533.797 308.937L699.384 145.837V141.803L531.494 310.68Z" fill="#164C59"/>
<path d="M523.547 316.763L699.452 470.146V459.569L525.971 314.928L699.452 131.312V126.419L523.547 316.763Z" fill="#164C59"/>
<path d="M515.515 322.814L665.378 473.749H676.858L518.061 320.887L699.434 114.497V108.492L515.515 322.814Z" fill="#164C59"/>
<path d="M507.482 328.874L632.611 473.738H642.997L510.151 326.851L699.417 94.7738V87.2869L507.482 328.874Z" fill="#164C59"/>
<path d="M499.451 334.958L604.082 473.754H613.597L502.244 332.844L699.401 71.2061V61.6868L499.451 334.958Z" fill="#164C59"/>
</svg>
