<svg width="19" height="19" viewBox="0 0 19 19" fill="none" xmlns="http://www.w3.org/2000/svg">
<path d="M10.3396 9.5L18.826 1.01355C19.058 0.781616 19.058 0.405884 18.826 0.17395C18.5941 -0.0579834 18.2184 -0.0579834 17.9865 0.17395L9.5 8.6604L1.01355 0.17395C0.781616 -0.0579833 0.405884 -0.0579833 0.17395 0.17395C-0.0579834 0.405884 -0.0579834 0.781616 0.17395 1.01355L8.6604 9.5L0.17395 17.9865C-0.0579833 18.2184 -0.0579833 18.5941 0.17395 18.826C0.289917 18.942 0.441447 19 0.59375 19C0.746053 19 0.897583 18.942 1.01355 18.826L9.5 10.3396L17.9865 18.826C18.1024 18.942 18.2539 19 18.4062 19C18.5586 19 18.7101 18.942 18.826 18.826C19.058 18.5941 19.058 18.2184 18.826 17.9865L10.3396 9.5Z" fill="#1D1D1B"/>
</svg>
