<svg width="753" height="812" viewBox="0 0 753 812" fill="none" xmlns="http://www.w3.org/2000/svg">
<path d="M735.826 773.799L198.721 440.212L50.2972 336.292L154.872 20.9499L121.216 18.0858L43.3755 335.703L193.889 439.801L723.976 772.791L735.826 773.799Z" fill="#F5F5F5"/>
<path d="M772.433 777.142L213.505 441.659L71.5347 338.276L258.974 29.9413L226.937 27.215L64.9478 337.715L208.906 441.268L761.157 776.183L772.433 777.142Z" fill="#F5F5F5"/>
<path d="M810.45 780.614L229.695 443.235L94.1818 340.388L364.507 39.0634L334.093 36.4752L87.9297 339.856L225.327 442.863L799.742 779.703L810.45 780.614Z" fill="#F5F5F5"/>
<path d="M847.06 783.957L244.472 444.681L115.424 342.372L468.653 48.0585L439.86 45.6082L109.501 341.868L240.341 444.329L836.923 783.095L847.06 783.957Z" fill="#F5F5F5"/>
<path d="M883.668 787.3L259.251 446.127L136.661 344.356L572.814 57.0557L545.644 54.7436L131.074 343.88L255.348 445.795L874.101 786.486L883.668 787.3Z" fill="#F5F5F5"/>
<path d="M920.277 790.643L274.025 447.573L157.904 346.339L676.999 66.0549L651.45 63.8807L152.652 345.892L270.359 447.261L911.284 789.878L920.277 790.643Z" fill="#F5F5F5"/>
<path d="M958.296 794.115L290.205 449.146L183.401 348.693L800.146 76.6766L758.683 73.1481L175.63 348.032L286.773 448.854L949.872 793.398L958.296 794.115Z" fill="#F5F5F5"/>
<path d="M996.315 797.586L307.573 450.826L209.592 351.069L936.121 88.4024L885.716 84.1128L200.441 350.29L301.768 450.332L987.039 796.797L996.315 797.586Z" fill="#F5F5F5"/>
</svg>
