<svg width="544" height="856" viewBox="0 0 544 856" fill="none" xmlns="http://www.w3.org/2000/svg">
<path d="M-206.975 828.157L341.777 461.69L493.602 347.784L392.66 9.70497L426.766 6.16278L500.617 347.055L346.674 461.181L-194.966 826.91L-206.975 828.157Z" fill="#F5F5F5"/>
<path d="M-243.602 831.796L327.129 463.074L472.379 349.86L287.51 20.5294L319.967 17.1585L479.053 349.167L331.788 462.59L-232.177 830.609L-243.602 831.796Z" fill="#F5F5F5"/>
<path d="M-281.637 835.574L311.071 464.598L449.748 352.076L180.967 31.4922L211.773 28.2927L456.08 351.418L315.495 464.139L-270.791 834.448L-281.637 835.574Z" fill="#F5F5F5"/>
<path d="M-318.264 839.213L296.422 465.983L428.521 354.152L75.8471 42.3135L105.005 39.2851L434.518 353.529L300.605 465.548L-307.999 838.147L-318.264 839.213Z" fill="#F5F5F5"/>
<path d="M-354.889 842.851L281.767 467.368L407.299 356.228L-29.2543 53.1326L-1.74609 50.2756L412.955 355.641L285.718 466.957L-345.202 841.845L-354.889 842.851Z" fill="#F5F5F5"/>
<path d="M-391.514 846.49L267.112 468.753L386.071 358.305L-134.348 63.9505L-108.487 61.2646L391.387 357.753L270.824 468.367L-382.41 845.544L-391.514 846.49Z" fill="#F5F5F5"/>
<path d="M-429.547 850.268L251.048 470.279L360.554 360.822L-258.584 76.7501L-216.623 72.3921L368.418 360.005L254.522 469.918L-421.021 849.383L-429.547 850.268Z" fill="#F5F5F5"/>
<path d="M-467.582 854.047L233.793 471.924L334.353 363.357L-395.764 90.8847L-344.761 85.5879L343.613 362.395L239.667 471.314L-458.195 853.072L-467.582 854.047Z" fill="#F5F5F5"/>
</svg>
