<svg width="926" height="802" viewBox="0 0 926 802" fill="none" xmlns="http://www.w3.org/2000/svg">
<path d="M617.275 776.986L121.902 432.636L-15.0907 325.611L78.1005 8.13254L47.2141 4.79481L-21.4428 324.924L117.467 432.157L606.4 775.81L617.275 776.986Z" fill="#F5F5F5"/>
<path d="M650.611 780.404L135.284 433.932L4.2332 327.559L173.445 18.3259L144.049 15.1496L-1.8108 326.906L131.064 433.476L640.264 779.286L650.611 780.404Z" fill="#F5F5F5"/>
<path d="M685.23 783.953L149.949 435.359L24.8403 329.639L270.072 28.6492L242.168 25.6345L19.1044 329.019L145.942 434.927L675.406 782.892L685.23 783.953Z" fill="#F5F5F5"/>
<path d="M718.568 787.371L163.331 436.656L44.168 331.588L365.416 38.8392L339.003 35.9857L38.7353 331.001L159.541 436.246L709.27 786.367L718.568 787.371Z" fill="#F5F5F5"/>
<path d="M751.904 790.79L176.715 437.953L63.4917 333.537L460.755 49.0268L435.835 46.3349L58.3671 332.983L173.135 437.566L743.129 789.842L751.904 790.79Z" fill="#F5F5F5"/>
<path d="M785.242 794.208L190.099 439.25L82.8219 335.486L556.101 59.213L532.67 56.6823L78.0055 334.966L186.737 438.887L776.994 793.317L785.242 794.208Z" fill="#F5F5F5"/>
<path d="M819.861 797.757L204.764 440.679L106.043 337.85L668.807 71.2656L630.786 67.1596L98.9177 337.08L201.617 440.339L812.136 796.923L819.861 797.757Z" fill="#F5F5F5"/>
<path d="M854.48 801.306L220.51 442.22L129.889 340.23L793.254 84.5749L747.038 79.5843L121.498 339.324L215.188 441.646L845.975 800.387L854.48 801.306Z" fill="#F5F5F5"/>
</svg>
