<svg width="634" height="578" viewBox="0 0 634 578" fill="none" xmlns="http://www.w3.org/2000/svg">
<path d="M633.943 523.403L633.943 537.869C618.491 543.651 602.125 547.407 585.412 548.934C590.134 555.831 594.219 563.054 597.667 570.51L581.594 570.51C575.178 558.056 566.719 546.4 556.355 536.013C583.119 537.896 609.878 533.438 633.943 523.403Z" fill="#F5F5F5"/>
<path d="M633.943 552.128L633.943 566.247C632.043 566.841 630.136 567.418 628.219 567.957C628.559 568.804 628.884 569.658 629.212 570.51L613.519 570.51C611.889 566.634 610.114 562.807 608.172 559.052C616.932 557.304 625.55 554.98 633.943 552.128Z" fill="#F5F5F5"/>
<path d="M355.416 500.702C353.327 524.787 358.287 548.86 369.443 570.51L353.365 570.51C346.936 556.608 342.761 541.884 341.064 526.849C319.096 539.013 294.227 546.588 268.552 548.934C273.274 555.831 277.359 563.054 280.807 570.51L264.734 570.51C258.318 558.055 249.859 546.4 239.495 536.013C281.65 538.979 323.801 526.235 355.416 500.702Z" fill="#F5F5F5"/>
<path d="M329.809 547.326C331.746 555.204 334.33 562.958 337.502 570.51L321.813 570.51C321.152 568.799 320.509 567.082 319.906 565.349C317.079 566.282 314.22 567.149 311.35 567.957C311.69 568.804 312.015 569.658 312.343 570.51L296.649 570.51C295.02 566.633 293.246 562.806 291.303 559.052C304.559 556.406 317.499 552.471 329.809 547.326Z" fill="#F5F5F5"/>
<path d="M581.59 0.406312L597.663 0.406311C604.093 14.311 608.269 29.0403 609.961 44.0758C617.629 39.8295 625.657 36.1556 633.943 33.0541L633.943 47.5187C620.103 53.29 607.151 60.8997 595.608 70.2222C597.704 46.1374 592.746 22.0594 581.59 0.406312Z" fill="#F5F5F5"/>
<path d="M629.209 0.418274C629.87 2.13272 630.513 3.85281 631.114 5.57973C632.054 5.27119 632.999 4.97995 633.943 4.68509L633.943 18.8038C629.636 20.2672 625.384 21.8606 621.21 23.6028C619.273 15.7236 616.689 7.96878 613.515 0.418274L629.209 0.418274Z" fill="#F5F5F5"/>
<path d="M556.354 250.992C583.119 252.875 609.878 248.416 633.943 238.382L633.943 252.846C618.491 258.629 602.125 262.386 585.412 263.913C598.938 283.668 607.362 306.055 609.96 329.149C617.628 324.903 625.657 321.229 633.943 318.128L633.943 332.592C620.103 338.364 607.15 345.973 595.608 355.296C598.909 317.361 584.735 279.435 556.354 250.992Z" fill="#F5F5F5"/>
<path d="M633.943 267.119L633.943 281.237C632.043 281.831 630.136 282.408 628.219 282.948C629.243 285.495 630.215 288.071 631.114 290.653C632.054 290.345 632.999 290.054 633.943 289.758L633.943 303.878C629.636 305.341 625.384 306.934 621.21 308.677C618.28 296.755 613.896 285.108 608.172 274.042C616.932 272.294 625.55 269.971 633.943 267.119Z" fill="#F5F5F5"/>
<path d="M517.104 485.168L399.565 429.514C381.562 420.999 359.211 427.235 349.735 443.432C321.319 492.016 254.258 510.743 200.248 485.168L207.12 473.42C207.119 473.42 207.118 473.419 207.117 473.419L207.117 473.418C253.929 495.583 312.049 479.357 336.686 437.252C349.942 414.577 381.232 405.839 406.445 417.774C406.445 417.765 523.974 473.418 523.974 473.418C560.929 490.922 604.929 484.482 633.943 460.278L633.943 477.439C600.881 499.095 555.666 503.432 517.104 485.168Z" fill="#F5F5F5"/>
<path d="M173.472 502.497C173.452 502.531 173.435 502.566 173.415 502.601L186.532 508.677C184.637 511.92 186.028 515.941 189.622 517.646C215.659 529.97 235.599 548.679 248.33 570.51L231.397 570.51C219.995 553.636 203.547 539.237 182.752 529.386C171.958 524.281 167.787 512.216 173.472 502.496" fill="#F5F5F5"/>
<path d="M510.225 496.926C550.64 516.061 597.493 513.309 633.943 493.387L633.943 508.62C594.445 527.264 545.727 528.738 503.355 508.676C501.46 511.919 502.84 515.941 506.445 517.646C532.482 529.97 552.412 548.679 565.152 570.51L548.21 570.51C536.818 553.636 520.37 539.236 499.575 529.386C488.771 524.281 484.609 512.216 490.295 502.495L477.235 496.315L484.173 484.591" fill="#F5F5F5"/>
<path d="M438.004 477.92L451.054 484.101C434.134 513.225 446.638 549.327 478.983 564.636C482.67 566.387 486.141 568.351 489.396 570.51L461.69 570.51C430.028 549.5 419.22 510.202 438.004 477.92Z" fill="#F5F5F5"/>
<path d="M413.494 465.582L426.24 471.509C406.204 505.3 412.216 544.828 438.068 570.423L419.2 570.84C396.233 541.537 392.573 500.843 413.494 465.582Z" fill="#F5F5F5"/>
<path d="M399.223 459.213C378.148 495.799 380.636 537.937 401.788 570.549L385.286 570.704C365.541 535.333 364.456 491.5 386.568 453.134L399.223 459.213Z" fill="#F5F5F5"/>
<path d="M544.594 438.189L427.055 382.535C380.254 360.37 322.133 376.595 297.496 418.702C284.25 441.36 252.986 450.101 227.793 438.214L234.672 426.454C252.667 434.94 274.981 428.702 284.447 412.521C312.864 363.938 379.924 345.211 433.935 370.785L551.464 426.439C569.468 434.955 591.829 428.718 601.294 412.521C609.42 398.631 620.709 387.187 633.943 378.523L633.943 395.684C626.209 402.133 619.535 409.843 614.354 418.702C601.098 441.376 569.797 450.114 544.594 438.189Z" fill="#F5F5F5"/>
<path d="M499.575 244.365C488.77 239.25 484.609 227.185 490.295 217.465L552.154 111.727C573.423 75.366 570.354 33.2043 548.209 0.41089L565.142 0.410889C585.875 35.9473 587.513 79.7861 565.214 117.908C568.819 119.622 573.279 118.371 575.184 115.128C588.883 91.712 609.677 73.7723 633.943 62.319L633.943 77.5531C615.188 87.8109 599.182 102.6 588.234 121.308C582.548 131.029 569.138 134.772 558.334 129.658L551.464 141.407C569.468 149.932 591.828 143.687 601.294 127.498C609.42 113.608 620.708 102.164 633.943 93.4913L633.943 110.652C626.208 117.111 619.534 124.82 614.353 133.679C601.098 156.354 569.797 165.092 544.594 153.157L537.714 164.907C570.127 180.252 610.358 169.012 627.414 139.859C629.35 136.542 631.544 133.42 633.943 130.492L633.943 155.427C610.553 183.949 566.759 193.66 530.844 176.656L523.974 188.406C560.929 205.901 604.93 199.461 633.943 175.257L633.943 192.419C600.882 214.083 555.666 218.41 517.105 200.156L510.225 211.896C550.64 231.031 597.493 228.279 633.943 208.356L633.943 223.599C594.445 242.243 545.727 243.716 503.355 223.655C501.459 226.898 502.84 230.91 506.445 232.616C574.855 265.01 601.211 341.43 565.214 402.977C568.819 404.682 573.279 403.44 575.184 400.197C588.883 376.771 609.677 358.841 633.943 347.379L633.943 362.622C615.188 372.87 599.182 387.669 588.234 406.377C582.548 416.088 569.138 419.841 558.334 414.726L440.805 359.073C379.594 330.088 303.594 351.317 271.387 406.377C265.711 416.073 252.336 419.828 241.541 414.75L248.357 403.098L248.319 403.042L248.357 402.978C248.356 402.978 248.357 402.977 248.357 402.978C251.961 404.682 256.432 403.44 258.327 400.197C294.334 338.65 379.275 314.928 447.675 347.323C449.58 344.08 448.19 340.058 444.585 338.354C376.186 305.968 349.819 229.549 385.825 168.002L399.237 173.58L398.886 174.182C366.669 229.252 390.254 297.628 451.465 326.613C462.259 331.719 466.43 343.793 460.745 353.504L473.795 359.694C483.27 343.496 476.339 323.379 458.335 314.854C404.334 289.288 383.519 228.955 411.935 180.363C411.946 180.363 473.795 74.6247 473.795 74.6247C483.27 58.4275 476.339 38.3195 458.335 29.7943C442.896 22.4832 430.166 12.3276 420.525 0.410891L439.6 0.410891C446.779 7.36966 455.348 13.3839 465.205 18.0446C490.408 29.9797 500.121 58.1306 486.855 80.8055L425.006 186.553C400.369 228.659 418.404 280.949 465.205 303.114C490.408 315.039 500.121 343.2 486.855 365.875L499.915 372.055C516.971 342.903 504.477 306.699 472.085 291.364C432.483 272.609 417.219 228.362 438.065 192.733C438.055 192.733 499.915 86.9955 499.915 86.9955C516.971 57.8438 504.477 21.64 472.085 6.29483C468.388 4.55304 464.906 2.5791 461.641 0.410891L489.357 0.41089C521.08 21.455 531.885 60.8551 512.974 93.1759L451.115 198.914C434.059 228.066 446.552 264.269 478.955 279.614C518.557 298.36 533.821 342.607 512.974 378.236L526.034 384.426C550.671 342.31 532.626 290.02 485.825 267.864C460.622 255.93 450.909 227.778 464.175 205.104L526.034 99.3567C545.49 66.1091 538.322 26.5142 511.409 0.41089L530.494 0.41089C554.574 30.1559 559.395 70.8442 539.094 105.547L477.235 211.284C467.759 227.482 474.701 247.59 492.695 256.115C546.706 281.69 567.521 342.023 539.094 390.606L552.154 396.787C584.361 341.726 560.775 273.341 499.575 244.365Z" fill="#F5F5F5"/>
<path d="M323.616 431.104C302.789 466.716 253.643 480.452 214.051 461.735L220.92 449.994C253.313 465.293 293.519 454.059 310.556 424.923C331.402 389.294 380.583 375.561 420.185 394.316L537.724 449.96C570.127 465.306 610.357 454.075 627.413 424.923C629.35 421.606 631.543 418.483 633.943 415.555L633.943 440.481C610.553 469.012 566.759 478.714 530.844 461.71L413.315 406.066C380.913 390.721 340.672 401.952 323.616 431.104Z" fill="#F5F5F5"/>
<path d="M392.62 156.249C392.653 156.264 392.686 156.278 392.719 156.293L392.798 156.157L392.799 156.156L392.719 156.294C392.686 156.278 392.652 156.265 392.619 156.249L392.62 156.249Z" fill="#F5F5F5"/>
</svg>
