<svg width="1170" height="574" viewBox="0 0 1170 574" fill="none" xmlns="http://www.w3.org/2000/svg">
<path d="M0.457031 0L610.789 234.917L702.494 309.448L119.47 574L162.097 574L710.233 309.448L615.699 234.917L8.30225 -9.38463e-09L0.457031 0Z" fill="#F5F5F5"/>
<path d="M32.3975 0L625.322 234.917L724.492 309.412L234.263 574L269.331 574L731.065 309.412L628.224 234.917L39.5225 -8.5231e-09L32.3975 0Z" fill="#F5F5F5"/>
<path d="M64.3369 0L638.855 234.917L745.917 309.412L338.226 574L359.836 574L750.359 309.412L641.956 234.917L71.9443 -9.10008e-09L64.3369 0Z" fill="#F5F5F5"/>
<path d="M95.0947 0L651.207 234.917L763.753 309.412L426.175 574L449.16 574L768.48 309.412L654.508 234.917L103.189 -9.68234e-09L95.0947 0Z" fill="#F5F5F5"/>
<path d="M125.852 0L663.56 234.917L781.584 309.412L514.119 574L538.481 574L786.594 309.412L667.055 234.917L134.428 -1.02593e-08L125.852 0Z" fill="#F5F5F5"/>
<path d="M156.609 0L675.909 234.917L799.417 309.412L602.067 574L627.803 574L804.708 309.412L679.605 234.917L165.67 -1.0839e-08L156.609 0Z" fill="#F5F5F5"/>
<path d="M188.549 0L689.442 234.917L818.43 309.412L691.196 574L718.308 574L824.005 309.412L693.334 234.917L198.092 -1.14159e-08L188.549 0Z" fill="#F5F5F5"/>
<path d="M219.307 0L701.794 234.917L836.262 309.412L779.143 574L807.63 574L842.12 309.412L705.884 234.917L229.337 -1.19982e-08L219.307 0Z" fill="#F5F5F5"/>
<path d="M250.064 0L714.145 234.917L854.095 309.412L867.09 574L896.951 574L860.236 309.412L718.434 234.917L260.576 -1.25752e-08L250.064 0Z" fill="#F5F5F5"/>
<path d="M280.821 0L726.497 234.917L872.963 308.329L955.039 574L986.472 574L883.606 306.68L730.983 234.917L291.82 -1.31574e-08L280.821 0Z" fill="#F5F5F5"/>
<path d="M766.346 -7.6826e-09L762.675 5.45079L761.408 -1.77574e-09L759.924 0L762.115 8.64908L767.994 -9.65331e-09L766.346 -7.6826e-09Z" fill="#F5F5F5"/>
<path d="M774.806 -2.77086e-08L760.626 20.4251L753.843 -2.63202e-09L751.643 0L760.027 23.8574L776.696 -2.99692e-08L774.806 -2.77086e-08Z" fill="#F5F5F5"/>
<path d="M783.48 -4.9405e-08L758.209 35.3994L744.633 -2.935e-09L742.179 0L757.563 39.0656L785.654 -5.20054e-08L783.48 -4.9405e-08Z" fill="#F5F5F5"/>
<path d="M791.865 -7.35859e-08L754.826 50.3717L733.328 -3.56205e-09L730.35 0L754.143 54.2739L794.37 -7.65815e-08L791.865 -7.35859e-08Z" fill="#F5F5F5"/>
<path d="M802.5 -1.00459e-07L752.938 65.348L722.09 -4.27078e-09L718.52 0L752.216 69.4802L805.377 -1.039e-07L802.5 -1.00459e-07Z" fill="#F5F5F5"/>
<path d="M813.234 -1.30281e-07L750.303 80.3223L708.566 -5.07434e-09L704.324 0L749.539 84.6884L816.547 -1.34243e-07L813.234 -1.30281e-07Z" fill="#F5F5F5"/>
<path d="M824.305 -1.63335e-07L747.034 95.2965L692.769 -5.98856e-09L687.763 0L746.23 99.8967L828.12 -1.67898e-07L824.305 -1.63335e-07Z" fill="#F5F5F5"/>
<path d="M837.166 -1.99946e-07L744.455 110.271L675.881 -7.01345e-09L670.018 0L743.609 115.103L841.565 -2.05208e-07L837.166 -1.99946e-07Z" fill="#F5F5F5"/>
<path d="M850.945 -2.40486e-07L741.531 125.247L656.74 -8.17268e-09L649.908 0L740.643 130.311L856.031 -2.46569e-07L850.945 -2.40486e-07Z" fill="#F5F5F5"/>
<path d="M867.195 -2.85396e-07L740.425 138.58L636.537 -9.47684e-09L628.614 0L739.5 143.88L873.091 -2.92449e-07L867.195 -2.85396e-07Z" fill="#F5F5F5"/>
<path d="M352.982 0L735.588 221.111L892.666 272.855L1054.38 574L1083.2 574L889.957 257.004L735.643 219.294L360.667 -9.1923e-09L352.982 0Z" fill="#F5F5F5"/>
<path d="M319.859 0L730.211 227.365L889.408 296.064L1017.53 574L1035.61 574L892.093 289.824L731.863 225.546L327.142 -8.71279e-09L319.859 0Z" fill="#F5F5F5"/>
<path d="M387.289 0L736.806 213.154L893.647 238.911L1112.81 574L1150.69 574L895.342 226.294L736.863 211.191L395.372 -9.66917e-09L387.289 0Z" fill="#F5F5F5"/>
<path d="M419.229 0L736.138 205.094L892.741 204.782L1168.94 534.587L1168.94 489.387L892.968 187.526L736.202 202.98L427.71 -1.0146e-08L419.229 0Z" fill="#F5F5F5"/>
<path d="M452.352 0L737.079 196.93L893.44 170.618L1169.64 408.038L1169.64 352.017L893.44 157.224L737.148 194.656L461.232 -1.06229e-08L452.352 0Z" fill="#F5F5F5"/>
<path d="M484.292 0L737.216 188.654L893.331 136.452L1169.53 281.662L1169.53 232.748L892.089 121.389L737.288 186.223L493.573 -1.11024e-08L484.292 0Z" fill="#F5F5F5"/>
<path d="M516.232 0L737.686 180.269L893.553 102.272L1169.75 160.652L1169.75 101.041L893.553 87.8054L737.764 177.669L525.914 -1.15819e-08L516.232 0Z" fill="#F5F5F5"/>
<path d="M1123.56 -6.8971e-07L892.886 51.2421L737.356 168.996L557.07 -1.20588e-08L546.989 0L737.272 171.766L892.886 68.0803L1169.09 39.0755L1169.09 -7.44165e-07L1123.56 -6.8971e-07Z" fill="#F5F5F5"/>
<path d="M931.823 -4.2214e-07L893.67 16.8381L738.4 160.2L587.59 -1.03594e-08L578.93 0L738.31 163.145L893.67 33.8706L1002.48 -5.06662e-07L931.823 -4.2214e-07Z" fill="#F5F5F5"/>
<path d="M884.914 -3.33478e-07L738.632 151.274L614.448 -9.94053e-09L606.138 0L738.54 154.401L896.362 -3.47173e-07L884.914 -3.33478e-07Z" fill="#F5F5F5"/>
</svg>
