<svg width="43" height="42" viewBox="0 0 43 42" fill="none" xmlns="http://www.w3.org/2000/svg">
<path d="M40.2911 12.6849C39.5027 10.8829 38.4593 9.20354 37.1928 7.6984C35.3207 5.40698 32.9843 3.5379 30.3374 2.21418C27.6906 0.890447 24.7933 0.142083 21.8363 0.0183367C18.8794 -0.105409 15.9297 0.398265 13.1814 1.49622C10.4332 2.59417 7.94869 4.2615 5.89148 6.38848C3.83427 8.51545 2.25099 11.0538 1.24584 13.8366C0.240683 16.6193 -0.163552 19.5833 0.0597416 22.5335C0.283035 25.4836 1.12879 28.3531 2.54135 30.9529C3.9539 33.5528 5.90122 35.8241 8.25515 37.6175C9.76556 38.7911 11.4345 39.7452 13.2124 40.4514C15.705 41.4725 18.3727 41.9985 21.0664 42C26.6269 41.9877 31.9556 39.772 35.8845 35.8386C39.8135 31.9052 42.022 26.575 42.0261 21.0164C42.0302 18.1492 41.4394 15.3123 40.2911 12.6849ZM21.0509 4.27597C23.47 4.27571 25.8598 4.80426 28.053 5.82458C27.5182 6.05558 26.9559 6.21693 26.3799 6.30465C24.4847 6.5789 22.7291 7.45848 21.375 8.81211C20.0209 10.1657 19.141 11.9208 18.8667 13.8154C18.7462 14.8779 18.2628 15.8664 17.498 16.614C16.7332 17.3616 15.7339 17.8226 14.6685 17.9192C12.7733 18.1934 11.0177 19.073 9.66357 20.4266C8.30949 21.7803 7.42962 23.5354 7.15527 25.4299C7.06239 26.4402 6.63119 27.3896 5.93146 28.1245C4.72416 25.5744 4.18181 22.7603 4.35487 19.9443C4.52794 17.1283 5.4108 14.4018 6.92131 12.0186C8.43181 9.63538 10.5209 7.67287 12.994 6.3137C15.4672 4.95454 18.2442 4.2429 21.0664 4.245L21.0509 4.27597ZM8.23966 31.8566C8.42556 31.6863 8.61145 31.5314 8.79735 31.3456C10.1755 30.0099 11.0602 28.2466 11.3069 26.3436C11.407 25.2739 11.8848 24.2747 12.6547 23.5251C13.3955 22.7542 14.3927 22.2805 15.4586 22.1933C17.3538 21.9191 19.1095 21.0395 20.4636 19.6859C21.8176 18.3323 22.6975 16.5772 22.9719 14.6826C23.0389 13.5638 23.5192 12.5097 24.3196 11.7248C25.0787 10.9688 26.0855 10.5124 27.1545 10.4394C28.8956 10.2 30.5194 9.4262 31.8019 8.22492C33.2622 9.43604 34.4994 10.893 35.4578 12.53C35.399 12.6096 35.3314 12.6823 35.2564 12.7468C34.517 13.5245 33.5211 14.0086 32.4525 14.1096C30.5554 14.3791 28.797 15.2571 27.4421 16.6116C26.0871 17.9661 25.2088 19.7238 24.9392 21.6204C24.8301 22.6865 24.3556 23.682 23.5961 24.4384C22.8366 25.1948 21.839 25.6654 20.7721 25.7706C18.8714 26.0428 17.1091 26.9206 15.7472 28.2737C14.3853 29.6268 13.4963 31.383 13.2124 33.2813C13.129 34.0382 12.869 34.7649 12.4533 35.4029C10.8639 34.4596 9.44037 33.2615 8.23966 31.8566ZM21.0509 37.8343C19.479 37.836 17.9146 37.617 16.4036 37.1838C16.9204 36.2206 17.2565 35.1709 17.395 34.0866C17.5036 33.0229 17.9759 32.0292 18.7322 31.2731C19.4885 30.517 20.4826 30.0449 21.5467 29.9364C23.4447 29.6652 25.2038 28.787 26.561 27.4331C27.9181 26.0792 28.8002 24.3224 29.0754 22.4256C29.184 21.3619 29.6563 20.3682 30.4126 19.6121C31.1689 18.856 32.163 18.3839 33.2271 18.2754C34.6554 18.0896 36.0168 17.558 37.1928 16.7268C37.8459 19.2013 37.9232 21.7925 37.419 24.3015C36.9147 26.8106 35.8422 29.1708 34.2838 31.2012C32.7253 33.2316 30.7224 34.8781 28.4286 36.0145C26.1347 37.1509 23.611 37.7469 21.0509 37.7568V37.8343Z" fill="#0A0A0A"/>
</svg>
