<svg width="344" height="208" viewBox="0 0 344 208" fill="none" xmlns="http://www.w3.org/2000/svg">
<path d="M159.307 152.444L119.35 263.608H115.357L158.21 153.985L1.21951 -83.9976V-89.6184L159.307 152.444Z" fill="#EFEFEF"/>
<path d="M15.3347 -103.852L164.145 145.598L137.02 263.588H132.755L162.973 147.243L6.93693 -103.852H15.3347Z" fill="#EFEFEF"/>
<path d="M32.7033 -103.852L169.049 138.773L154.762 263.589H150.224L167.803 140.523L28.2621 -103.852H32.7033Z" fill="#EFEFEF"/>
<path d="M50.0068 -103.852L173.887 131.947L172.44 263.59H167.629L172.566 133.802L45.2969 -103.852H50.0068Z" fill="#EFEFEF"/>
<path d="M67.3146 -103.852L178.73 125.122L190.125 263.592H185.043L177.335 127.082L62.34 -103.852H67.3146Z" fill="#EFEFEF"/>
<path d="M84.6963 -103.852L183.648 118.298L207.887 263.594H202.531L182.178 120.362L79.457 -103.852H84.6963Z" fill="#EFEFEF"/>
<path d="M102.014 -103.852L188.5 111.473L225.582 263.595H219.957L186.957 113.641L96.5103 -103.852H102.014Z" fill="#EFEFEF"/>
<path d="M119.332 -103.852L193.352 104.646L243.277 263.597H237.38L191.733 106.922L113.561 -103.852H119.332Z" fill="#EFEFEF"/>
<path d="M136.649 -103.852L198.202 97.8215L260.973 263.598H254.804L196.511 100.2L130.612 -103.852H136.649Z" fill="#EFEFEF"/>
<path d="M106.485 119.409L1.31407 156.991L1.21232 153.312L105.003 118.261L106.485 119.409Z" fill="#EFEFEF"/>
<path d="M111.257 122.575L1.22973 172.736V168.611L108.626 122.04L1.22973 35.7958V33.9414L111.257 122.575Z" fill="#EFEFEF"/>
<path d="M119.011 127.703L1.22647 191.108V186.202L116.831 126.647L1.22647 27.9405V25.748L119.011 127.703Z" fill="#EFEFEF"/>
<path d="M125.241 132.398L1.24042 211.662V205.837L123.331 131.229L1.24042 19.1492V16.5378L125.241 132.398Z" fill="#EFEFEF"/>
<path d="M131.471 137.115L1.25345 234.768V227.855L129.684 135.763L1.25345 9.26104V6.13159L131.471 137.115Z" fill="#EFEFEF"/>
<path d="M137.635 141.833L1.20095 260.799V252.595L135.755 140.41L1.20095 -2.00527V-5.7998L137.635 141.833Z" fill="#EFEFEF"/>
<path d="M143.864 146.526L27.6287 263.593H18.7247L141.889 145.032L1.2139 -15.0468V-19.7048L143.864 146.526Z" fill="#EFEFEF"/>
<path d="M150.095 151.226L53.0436 263.585H44.9879L148.025 149.657L1.22781 -30.3447V-36.1516L150.095 151.226Z" fill="#EFEFEF"/>
<path d="M156.324 155.945L75.1714 263.597H67.7916L154.158 154.305L1.24079 -48.624V-56.0073L156.324 155.945Z" fill="#EFEFEF"/>
</svg>
