<svg width="809" height="293" viewBox="0 0 809 293" fill="none" xmlns="http://www.w3.org/2000/svg">
<path d="M0 -53L422.27 127.485L485.718 184.746L82.3414 388H111.834L491.073 184.746L425.667 127.485L5.42787 -53H0Z" fill="#EFEFEF"/>
<path d="M22.0986 -53L432.325 127.485L500.938 184.719L161.763 388H186.026L505.485 184.719L434.333 127.485L27.0282 -53H22.0986Z" fill="#EFEFEF"/>
<path d="M44.1963 -53L441.688 127.485L515.761 184.719L233.692 388H248.643L518.834 184.719L443.833 127.485L49.4596 -53H44.1963Z" fill="#EFEFEF"/>
<path d="M65.4766 -53L450.233 127.485L528.101 184.719L294.541 388H310.444L531.371 184.719L452.518 127.485L71.0766 -53H65.4766Z" fill="#EFEFEF"/>
<path d="M86.7568 -53L458.781 127.485L540.438 184.719L355.387 388H372.243L543.905 184.719L461.199 127.485L92.6906 -53H86.7568Z" fill="#EFEFEF"/>
<path d="M108.037 -53L467.325 127.485L552.776 184.719L416.235 388H434.041L556.437 184.719L469.882 127.485L114.306 -53H108.037Z" fill="#EFEFEF"/>
<path d="M130.135 -53L476.688 127.485L565.931 184.719L477.901 388H496.659L569.787 184.719L479.38 127.485L136.738 -53H130.135Z" fill="#EFEFEF"/>
<path d="M151.415 -53L485.233 127.485L578.268 184.719L538.749 388H558.458L582.321 184.719L488.063 127.485L158.355 -53H151.415Z" fill="#EFEFEF"/>
<path d="M172.695 -53L493.779 127.485L590.606 184.719L599.597 388H620.257L594.854 184.719L496.746 127.485L179.969 -53H172.695Z" fill="#EFEFEF"/>
<path d="M193.976 -53L502.325 127.485L603.661 183.887L660.446 388H682.194L611.024 182.62L505.429 127.485L201.586 -53H193.976Z" fill="#EFEFEF"/>
<path d="M554.909 -53L520.619 -2.79361L499.276 -53H496.806L520.119 0.381134L556.899 -53H554.909Z" fill="#EFEFEF"/>
<path d="M562.336 -53L518.796 8.71101L489.919 -53H486.984L518.267 12.0655L564.628 -53H562.336Z" fill="#EFEFEF"/>
<path d="M569.995 -53L516.533 20.2156L478.989 -53H475.525L515.977 23.7499L572.634 -53H569.995Z" fill="#EFEFEF"/>
<path d="M578.894 -53L514.75 31.7203L467.305 -53H463.249L514.165 35.4328L581.937 -53H578.894Z" fill="#EFEFEF"/>
<path d="M588.427 -53L512.726 43.2265L454.062 -53H449.335L512.112 47.1172L591.945 -53H588.427Z" fill="#EFEFEF"/>
<path d="M599.669 -53L511.961 53.4697L440.084 -53H434.603L511.321 57.5418L603.749 -53H599.669Z" fill="#EFEFEF"/>
<path d="M243.901 -53L508.614 116.878L617.292 156.632L729.179 388H749.117L615.418 144.454L508.652 115.482L249.218 -53H243.901Z" fill="#EFEFEF"/>
<path d="M220.984 -53L504.894 121.683L615.038 174.463L703.68 388H716.194L616.896 169.669L506.037 120.286L226.024 -53H220.984Z" fill="#EFEFEF"/>
<path d="M267.637 -53L509.457 110.764L617.97 130.553L769.606 388H795.813L619.144 120.86L509.497 109.256L273.229 -53H267.637Z" fill="#EFEFEF"/>
<path d="M289.735 -53L508.996 104.572L617.344 104.333L808.438 357.72V322.992L617.501 91.0746L509.04 102.948L295.604 -53H289.735Z" fill="#EFEFEF"/>
<path d="M312.652 -53L509.646 98.3L617.827 78.0847L808.921 260.492V217.452L617.827 67.7942L509.694 96.5527L318.796 -53H312.652Z" fill="#EFEFEF"/>
<path d="M334.751 -53L509.741 91.9414L617.753 51.8351L808.847 163.399V125.819L616.893 40.2619L509.791 90.0737L341.172 -53H334.751Z" fill="#EFEFEF"/>
<path d="M356.849 -53L510.066 85.499L617.906 25.5749L809 70.4281V24.6289L617.906 14.4603L510.12 83.5018L363.547 -53H356.849Z" fill="#EFEFEF"/>
<path d="M777.042 -53L617.444 -13.631L509.838 76.8385L385.103 -53H378.129L509.78 78.9667L617.444 -0.694405L808.538 -22.9786V-53H777.042Z" fill="#EFEFEF"/>
<path d="M644.384 -53L617.987 -40.0634L510.56 70.0808L406.219 -53H400.228L510.498 72.343L617.987 -26.9775L693.27 -53H644.384Z" fill="#EFEFEF"/>
<path d="M611.928 -53L510.72 63.2225L424.801 -53H419.052L510.656 65.6248L619.849 -53H611.928Z" fill="#EFEFEF"/>
</svg>
