<svg width="148" height="75" viewBox="0 0 148 75" fill="none" xmlns="http://www.w3.org/2000/svg">
<path d="M52.9559 49.3877H43.8987V74.5256H52.9559C60.5342 74.5256 65.3402 69.3133 65.3402 61.9568C65.3402 54.6 60.5342 49.3877 52.9559 49.3877ZM52.919 70.4961H48.1133V53.4172H52.919C58.0206 53.4172 60.9779 57.077 60.9779 61.9568C60.9779 66.8364 58.0206 70.4961 52.919 70.4961Z" fill="#0A0A0A"/>
<path d="M124.487 62.9917C127.185 62.2524 129.366 60.1823 129.366 56.5594C129.366 52.0495 126.039 49.3877 121.271 49.3877H113.212V74.5256H117.426V64.5814H119.348C122.527 64.5814 125.189 68.6478 126.187 74.5256H130.55C129.81 68.8326 127.592 64.5073 124.487 62.9917ZM121.234 60.5519H117.426V53.4172H121.234C123.415 53.4172 125.004 54.711 125.004 57.0029C125.004 59.295 123.415 60.5519 121.234 60.5519Z" fill="#0A0A0A"/>
<path d="M78.3704 49.3877H69.3134V74.5256H78.3704C85.9486 74.5256 90.7546 69.3133 90.7546 61.9568C90.7546 54.6 85.9486 49.3877 78.3704 49.3877ZM78.3334 70.4961H73.5277V53.4172H78.3334C83.435 53.4172 86.3924 57.077 86.3924 61.9568C86.3924 66.8364 83.435 70.4961 78.3334 70.4961Z" fill="#0A0A0A"/>
<path d="M27.0905 48.9726C19.734 48.9726 14.1517 54.5917 14.1517 61.9483C14.1517 69.3048 19.734 74.9237 27.0905 74.9237C34.447 74.9237 40.0292 69.3048 40.0292 61.9483C40.0292 54.5917 34.447 48.9726 27.0905 48.9726ZM27.0905 70.7096C22.1737 70.7096 18.477 66.8278 18.477 61.9483C18.477 57.0684 22.1737 53.1869 27.0905 53.1869C31.9331 53.1869 35.667 57.0684 35.667 61.9483C35.667 66.8278 31.9331 70.7096 27.0905 70.7096Z" fill="#0A0A0A"/>
<path d="M0 49.3877V74.5256H13.8996V70.4961H4.21431V49.3877H0Z" fill="#0A0A0A"/>
<path d="M108.628 74.5254V70.4962H98.9424V63.879H107.889V59.8495H98.9424V53.4172H108.628V49.3877H94.7281V74.5254H108.628Z" fill="#0A0A0A"/>
<path d="M146.854 50.2664C145.375 49.5271 143.49 48.9726 141.457 48.9726C135.357 48.9726 133.139 52.5955 133.139 55.9594C133.139 58.6212 134.137 60.6544 137.243 62.4659L141.161 64.8687C142.787 65.8667 143.49 66.8278 143.49 67.9368C143.49 69.6003 142.159 70.9314 139.608 70.9314C137.169 70.9314 134.839 69.8224 133.509 68.7503V73.4822C135.024 74.2215 137.243 74.9237 139.793 74.9237C145.338 74.9237 148 71.4859 148 67.7151C148 64.9795 146.78 62.9463 143.564 61.0241L139.719 58.6212C138.352 57.7709 137.649 56.8836 137.649 55.8115C137.649 54.148 138.98 52.9651 141.383 52.9651C143.416 52.9651 145.523 53.8152 146.854 54.8504V50.2664Z" fill="#0A0A0A"/>
<path d="M75.1558 6.84308L64.6926 17.3063L83.6146 36.2283L94.0778 25.7651L75.1558 6.84308Z" fill="#0A0A0A"/>
<path d="M61.6999 14.2979L53.4292 22.5686L75.3574 44.4966L83.6281 36.2259L61.6999 14.2979Z" fill="#FAA1B5"/>
<path d="M75.4444 0.633789L64.9812 11.097L83.9044 30.0201L94.3676 19.557L75.4444 0.633789Z" fill="#FAA1B5"/>
</svg>
