<svg width="122" height="62" viewBox="0 0 122 62" fill="none" xmlns="http://www.w3.org/2000/svg">
<path d="M43.6536 40.189H36.1875V60.9107H43.6536C49.9005 60.9107 53.8622 56.6141 53.8622 50.55C53.8622 44.4856 49.9005 40.189 43.6536 40.189ZM43.6232 57.5892H39.6617V43.5106H43.6232C47.8285 43.5106 50.2663 46.5274 50.2663 50.55C50.2663 54.5723 47.8285 57.5892 43.6232 57.5892Z" fill="white"/>
<path d="M102.618 51.4031C104.843 50.7936 106.641 49.0872 106.641 46.1007C106.641 42.3831 103.898 40.189 99.9672 40.189H93.3242V60.9107H96.7979V52.7135H98.3827C101.003 52.7135 103.197 56.0655 104.02 60.9107H107.616C107.007 56.2179 105.178 52.6524 102.618 51.4031ZM99.9367 49.3919H96.7979V43.5106H99.9367C101.735 43.5106 103.045 44.5771 103.045 46.4663C103.045 48.3558 101.735 49.3919 99.9367 49.3919Z" fill="white"/>
<path d="M64.6026 40.189H57.1367V60.9107H64.6026C70.8495 60.9107 74.8112 56.6141 74.8112 50.55C74.8112 44.4856 70.8495 40.189 64.6026 40.189ZM64.5722 57.5892H60.6107V43.5106H64.5722C68.7775 43.5106 71.2153 46.5274 71.2153 50.55C71.2153 54.5723 68.7775 57.5892 64.5722 57.5892Z" fill="white"/>
<path d="M22.3318 39.8469C16.2676 39.8469 11.666 44.4789 11.666 50.5431C11.666 56.6072 16.2676 61.239 22.3318 61.239C28.3959 61.239 32.9975 56.6072 32.9975 50.5431C32.9975 44.4789 28.3959 39.8469 22.3318 39.8469ZM22.3318 57.7653C18.2788 57.7653 15.2315 54.5654 15.2315 50.5431C15.2315 46.5205 18.2788 43.3209 22.3318 43.3209C26.3237 43.3209 29.4016 46.5205 29.4016 50.5431C29.4016 54.5654 26.3237 57.7653 22.3318 57.7653Z" fill="white"/>
<path d="M0 40.189V60.9107H11.4578V57.5892H3.47395V40.189H0Z" fill="white"/>
<path d="M89.5439 60.9105V57.5892H81.5599V52.1345H88.9345V48.8129H81.5599V43.5106H89.5439V40.189H78.0859V60.9105H89.5439Z" fill="white"/>
<path d="M121.056 40.9135C119.837 40.304 118.282 39.8469 116.606 39.8469C111.578 39.8469 109.75 42.8334 109.75 45.6063C109.75 47.8005 110.573 49.4765 113.133 50.9698L116.363 52.9505C117.703 53.7732 118.282 54.5654 118.282 55.4796C118.282 56.8509 117.185 57.9481 115.083 57.9481C113.072 57.9481 111.152 57.0339 110.055 56.1501V60.0508C111.304 60.6602 113.133 61.239 115.235 61.239C119.806 61.239 122 58.4052 122 55.2968C122 53.0418 120.995 51.3658 118.344 49.7813L115.174 47.8005C114.047 47.0996 113.468 46.3682 113.468 45.4844C113.468 44.1131 114.565 43.1381 116.546 43.1381C118.222 43.1381 119.959 43.8388 121.056 44.6922V40.9135Z" fill="white"/>
<path d="M61.9532 5.11841L53.3281 13.7435L68.926 29.3414L77.5511 20.7163L61.9532 5.11841Z" fill="white"/>
<path d="M50.8607 11.2637L44.043 18.0814L62.119 36.1572L68.9367 29.3394L50.8607 11.2637Z" fill="#FAA1B5"/>
<path d="M62.1915 0L53.5664 8.62506L69.1652 24.2239L77.7903 15.5988L62.1915 0Z" fill="#FAA1B5"/>
</svg>
