<svg width="918" height="801" viewBox="0 0 918 801" fill="none" xmlns="http://www.w3.org/2000/svg">
<path d="M239.012 776.447L734.385 432.097L871.378 325.072L778.187 7.59353L809.073 4.25581L877.73 324.385L738.82 431.618L249.887 775.272L239.012 776.447Z" fill="#F5F5F5"/>
<path d="M205.676 779.865L721.003 433.392L852.054 327.02L682.842 17.7869L712.238 14.6105L858.098 326.367L725.223 432.937L216.023 778.746L205.676 779.865Z" fill="#F5F5F5"/>
<path d="M171.057 783.414L706.338 434.82L831.447 329.1L586.216 28.11L614.119 25.0952L837.183 328.48L710.345 434.387L180.881 782.353L171.057 783.414Z" fill="#F5F5F5"/>
<path d="M137.719 786.832L692.957 436.117L812.119 331.049L490.871 38.2999L517.284 35.4464L817.552 330.462L696.746 435.707L147.017 785.828L137.719 786.832Z" fill="#F5F5F5"/>
<path d="M104.383 790.25L679.572 437.414L792.795 332.998L395.532 48.4877L420.452 45.7958L797.92 332.444L683.152 437.027L113.159 789.303L104.383 790.25Z" fill="#F5F5F5"/>
<path d="M71.0449 793.668L666.188 438.711L773.465 334.947L300.186 58.6739L323.617 56.1432L778.282 334.427L669.55 438.348L79.2929 792.778L71.0449 793.668Z" fill="#F5F5F5"/>
<path d="M36.4258 797.218L651.523 440.14L750.244 337.31L187.48 70.7263L225.501 66.6203L757.37 336.541L654.67 439.8L44.1507 796.384L36.4258 797.218Z" fill="#F5F5F5"/>
<path d="M1.80664 800.767L635.777 441.682L726.398 339.691L63.0332 84.0363L109.249 79.0456L734.789 338.785L641.099 441.107L10.3124 799.849L1.80664 800.767Z" fill="#F5F5F5"/>
</svg>
