<svg width="19" height="19" viewBox="0 0 19 19" fill="none" xmlns="http://www.w3.org/2000/svg">
<path d="M18.7678 17.6487L13.3648 12.2456C14.4114 10.9529 15.0415 9.31015 15.0415 7.52102C15.0415 3.37431 11.6674 0.000244141 7.52074 0.000244141C3.37403 0.000244141 0 3.37427 0 7.52098C0 11.6677 3.37406 15.0418 7.52077 15.0418C9.30991 15.0418 10.9526 14.4116 12.2454 13.365L17.6485 18.7681C17.8028 18.9225 18.0055 19.0001 18.2082 19.0001C18.4109 19.0001 18.6135 18.9225 18.7679 18.7681C19.0774 18.4586 19.0774 17.9582 18.7678 17.6487ZM7.52077 13.4584C4.24646 13.4584 1.58333 10.7953 1.58333 7.52098C1.58333 4.24667 4.24646 1.58354 7.52077 1.58354C10.7951 1.58354 13.4582 4.24667 13.4582 7.52098C13.4582 10.7953 10.795 13.4584 7.52077 13.4584Z" fill="#0A0A0A"/>
</svg>
