<svg width="769" height="683" viewBox="0 0 769 683" fill="none" xmlns="http://www.w3.org/2000/svg">
<path d="M20.3711 683H40.6987L20.3711 664.447V683Z" fill="#EEEEEE"/>
<path d="M20.3711 614.694V633.248L74.8762 682.994H115.531L40.6987 614.694H20.3711Z" fill="#EEEEEE"/>
<path d="M74.8145 614.694L149.647 682.994H169.975V664.442L115.471 614.694H74.8145Z" fill="#EEEEEE"/>
<path d="M169.956 633.247V614.694H149.629L169.956 633.247Z" fill="#EEEEEE"/>
<path d="M169.956 614.696V596.143L149.629 614.696H169.956Z" fill="#EEEEEE"/>
<path d="M115.513 614.691L170.018 564.945L170.018 527.839L74.8578 614.691L115.513 614.691Z" fill="#EEEEEE"/>
<path d="M149.709 478.107L20.3711 596.153V614.706H40.6986L170.036 496.66V478.107H149.709Z" fill="#EEEEEE"/>
<path d="M74.8578 478.088L20.3525 527.835L20.3525 564.942L115.513 478.088L74.8578 478.088Z" fill="#EEEEEE"/>
<path d="M20.3711 478.107V496.66L40.6987 478.107H20.3711Z" fill="#EEEEEE"/>
<path d="M20.3711 478.109H40.6987L20.3711 459.556V478.109Z" fill="#EEEEEE"/>
<path d="M20.3277 428.356L74.832 478.102L115.487 478.102L20.3277 391.25L20.3277 428.356Z" fill="#EEEEEE"/>
<path d="M20.3711 341.499V360.052L149.709 478.098H170.036V459.545L40.6986 341.499H20.3711Z" fill="#EEEEEE"/>
<path d="M74.8145 341.499L169.974 428.351L169.974 391.245L115.47 341.499L74.8145 341.499Z" fill="#EEEEEE"/>
<path d="M169.956 360.052V341.499H149.629L169.956 360.052Z" fill="#EEEEEE"/>
<path d="M20.3711 341.501H40.6987L20.3711 322.948V341.501Z" fill="#EEEEEE"/>
<path d="M20.3277 291.748L74.832 341.494L115.487 341.494L20.3277 254.642L20.3277 291.748Z" fill="#EEEEEE"/>
<path d="M20.3711 204.891V223.444L149.709 341.491H170.036V322.938L40.6986 204.891H20.3711Z" fill="#EEEEEE"/>
<path d="M74.8145 204.891L169.974 291.743V254.637L115.47 204.891H74.8145Z" fill="#EEEEEE"/>
<path d="M169.956 223.444V204.891H149.629L169.956 223.444Z" fill="#EEEEEE"/>
<path d="M20.3711 204.893H40.6987L20.3711 186.34V204.893Z" fill="#EEEEEE"/>
<path d="M20.3288 155.162L74.8341 204.909L115.49 204.909L20.3288 118.054L20.3288 155.162Z" fill="#EEEEEE"/>
<path d="M20.3711 68.3039V86.8569L149.709 204.903H170.036V186.351L40.6986 68.3039H20.3711Z" fill="#EEEEEE"/>
<path d="M74.8145 68.3039L169.974 155.156V118.05L115.47 68.3039H74.8145Z" fill="#EEEEEE"/>
<path d="M169.956 86.8569V68.3039H149.629L169.956 86.8569Z" fill="#EEEEEE"/>
<path d="M299.35 683H319.677V664.447L299.35 683Z" fill="#EEEEEE"/>
<path d="M299.366 614.694L224.535 682.994H265.189L319.694 633.248V614.694H299.366Z" fill="#EEEEEE"/>
<path d="M224.505 614.694L170 664.442V682.994H190.326L265.16 614.694H224.505Z" fill="#EEEEEE"/>
<path d="M170 633.247L190.328 614.694H170V633.247Z" fill="#EEEEEE"/>
<path d="M319.677 614.696V596.143L299.35 614.696H319.677Z" fill="#EEEEEE"/>
<path d="M265.142 614.691L319.646 564.945V527.839L224.487 614.691H265.142Z" fill="#EEEEEE"/>
<path d="M170 596.153V614.706H190.328L319.665 496.66V478.107H299.338L170 596.153Z" fill="#EEEEEE"/>
<path d="M170 527.854V564.959L265.16 478.107H224.505L170 527.854Z" fill="#EEEEEE"/>
<path d="M170 496.66L190.328 478.107H170V496.66Z" fill="#EEEEEE"/>
<path d="M319.677 478.109V459.556L299.35 478.109H319.677Z" fill="#EEEEEE"/>
<path d="M265.142 478.104L319.646 428.358V391.252L224.487 478.104H265.142Z" fill="#EEEEEE"/>
<path d="M170 459.545V478.098H190.328L319.665 360.052V341.499H299.338L170 459.545Z" fill="#EEEEEE"/>
<path d="M170 391.246V428.352L265.16 341.499H224.505L170 391.246Z" fill="#EEEEEE"/>
<path d="M170 360.052L190.328 341.499H170V360.052Z" fill="#EEEEEE"/>
<path d="M319.677 341.501V322.948L299.35 341.501H319.677Z" fill="#EEEEEE"/>
<path d="M265.142 341.496L319.646 291.75V254.644L224.487 341.496H265.142Z" fill="#EEEEEE"/>
<path d="M170 322.938V341.491H190.328L319.665 223.444V204.891H299.338L170 322.938Z" fill="#EEEEEE"/>
<path d="M170 254.638V291.744L265.16 204.891H224.505L170 254.638Z" fill="#EEEEEE"/>
<path d="M170 223.444L190.328 204.891H170V223.444Z" fill="#EEEEEE"/>
<path d="M170 204.893H190.328L170 186.34V204.893Z" fill="#EEEEEE"/>
<path d="M169.957 155.161L224.461 204.907L265.116 204.907L169.957 118.055L169.957 155.161Z" fill="#EEEEEE"/>
<path d="M170 68.3039V86.8569L299.338 204.903H319.665V186.351L190.328 68.3039H170Z" fill="#EEEEEE"/>
<path d="M224.535 68.3039L319.695 155.156L319.695 118.05L265.191 68.3039L224.535 68.3039Z" fill="#EEEEEE"/>
<path d="M319.677 86.8569V68.3039H299.35L319.677 86.8569Z" fill="#EEEEEE"/>
<path d="M319.629 683H339.956L319.629 664.447V683Z" fill="#EEEEEE"/>
<path d="M319.629 614.694V633.248L374.136 682.994H414.789L339.956 614.694H319.629Z" fill="#EEEEEE"/>
<path d="M374.164 614.694L448.995 682.994H469.323V664.442L414.819 614.694H374.164Z" fill="#EEEEEE"/>
<path d="M469.306 633.247V614.694H448.979L469.306 633.247Z" fill="#EEEEEE"/>
<path d="M319.629 614.696H339.956L319.629 596.143V614.696Z" fill="#EEEEEE"/>
<path d="M319.677 564.943L374.182 614.689L414.837 614.689L319.677 527.837L319.677 564.943Z" fill="#EEEEEE"/>
<path d="M319.629 478.107V496.66L448.967 614.706H469.294V596.153L339.956 478.107H319.629Z" fill="#EEEEEE"/>
<path d="M374.164 478.107L469.324 564.959L469.324 527.853L414.819 478.107L374.164 478.107Z" fill="#EEEEEE"/>
<path d="M469.306 496.66V478.107H448.979L469.306 496.66Z" fill="#EEEEEE"/>
<path d="M319.629 478.109H339.956L319.629 459.556V478.109Z" fill="#EEEEEE"/>
<path d="M319.677 428.356L374.182 478.102L414.837 478.102L319.677 391.25L319.677 428.356Z" fill="#EEEEEE"/>
<path d="M319.629 341.499V360.052L448.967 478.098H469.294V459.545L339.956 341.499H319.629Z" fill="#EEEEEE"/>
<path d="M374.164 341.499L469.324 428.351L469.324 391.245L414.819 341.499L374.164 341.499Z" fill="#EEEEEE"/>
<path d="M469.306 360.052V341.499H448.979L469.306 360.052Z" fill="#EEEEEE"/>
<path d="M319.629 341.501H339.956L319.629 322.948V341.501Z" fill="#EEEEEE"/>
<path d="M319.677 291.748L374.182 341.494L414.837 341.494L319.677 254.642L319.677 291.748Z" fill="#EEEEEE"/>
<path d="M319.629 204.891V223.444L448.967 341.491H469.294V322.938L339.956 204.891H319.629Z" fill="#EEEEEE"/>
<path d="M374.164 204.891L469.324 291.743V254.637L414.819 204.891H374.164Z" fill="#EEEEEE"/>
<path d="M469.306 223.444V204.891H448.979L469.306 223.444Z" fill="#EEEEEE"/>
<path d="M319.629 204.893H339.956L319.629 186.34V204.893Z" fill="#EEEEEE"/>
<path d="M319.677 155.161L374.182 204.907L414.837 204.907L319.677 118.055L319.677 155.161Z" fill="#EEEEEE"/>
<path d="M319.629 68.3039V86.8569L448.967 204.903H469.294V186.351L339.956 68.3039H319.629Z" fill="#EEEEEE"/>
<path d="M374.164 68.3039L469.324 155.156V118.05L414.819 68.3039H374.164Z" fill="#EEEEEE"/>
<path d="M469.306 86.8569V68.3039H448.979L469.306 86.8569Z" fill="#EEEEEE"/>
<path d="M469.348 683H489.675L469.348 664.447V683Z" fill="#EEEEEE"/>
<path d="M469.348 614.694V633.248L523.853 682.994H564.508L489.675 614.694H469.348Z" fill="#EEEEEE"/>
<path d="M523.793 614.694L598.626 682.994H618.952V664.442L564.448 614.694H523.793Z" fill="#EEEEEE"/>
<path d="M619.025 633.247V614.694H598.697L619.025 633.247Z" fill="#EEEEEE"/>
<path d="M469.348 614.696H489.675L469.348 596.143V614.696Z" fill="#EEEEEE"/>
<path d="M469.306 564.943L523.811 614.689H564.466L469.306 527.837V564.943Z" fill="#EEEEEE"/>
<path d="M469.348 478.107V496.66L598.685 614.706H619.013V596.153L489.675 478.107H469.348Z" fill="#EEEEEE"/>
<path d="M523.793 478.107L618.953 564.959L618.953 527.853L564.448 478.107L523.793 478.107Z" fill="#EEEEEE"/>
<path d="M619.025 496.66V478.107H598.697L619.025 496.66Z" fill="#EEEEEE"/>
<path d="M619.025 478.109V459.556L598.697 478.109H619.025Z" fill="#EEEEEE"/>
<path d="M564.492 478.104L618.996 428.358V391.252L523.836 478.104H564.492Z" fill="#EEEEEE"/>
<path d="M469.348 459.545V478.098H489.675L619.013 360.052V341.499H598.685L469.348 459.545Z" fill="#EEEEEE"/>
<path d="M469.348 391.246V428.352L564.508 341.499H523.853L469.348 391.246Z" fill="#EEEEEE"/>
<path d="M469.348 360.052L489.675 341.499H469.348V360.052Z" fill="#EEEEEE"/>
<path d="M619.025 341.501V322.948L598.697 341.501H619.025Z" fill="#EEEEEE"/>
<path d="M564.492 341.496L618.996 291.75L618.996 254.644L523.836 341.496H564.492Z" fill="#EEEEEE"/>
<path d="M469.348 322.938V341.491H489.675L619.013 223.444V204.891H598.685L469.348 322.938Z" fill="#EEEEEE"/>
<path d="M469.348 254.638V291.744L564.508 204.891H523.853L469.348 254.638Z" fill="#EEEEEE"/>
<path d="M469.348 223.444L489.675 204.891H469.348V223.444Z" fill="#EEEEEE"/>
<path d="M619.025 204.893V186.34L598.697 204.893H619.025Z" fill="#EEEEEE"/>
<path d="M564.492 204.909L618.996 155.163V118.057L523.836 204.909H564.492Z" fill="#EEEEEE"/>
<path d="M469.348 186.351V204.903H489.675L619.013 86.8569V68.3039H598.685L469.348 186.351Z" fill="#EEEEEE"/>
<path d="M469.348 118.051V155.157L564.508 68.3039H523.853L469.348 118.051Z" fill="#EEEEEE"/>
<path d="M469.348 86.8569L489.675 68.3039H469.348V86.8569Z" fill="#EEEEEE"/>
<path d="M748.326 683H768.655V664.447L748.326 683Z" fill="#EEEEEE"/>
<path d="M748.344 614.694L673.512 682.994H714.167L768.673 633.248V614.694H748.344Z" fill="#EEEEEE"/>
<path d="M673.482 614.694L618.977 664.442V682.994H639.304L714.137 614.694H673.482Z" fill="#EEEEEE"/>
<path d="M618.977 633.247L639.304 614.694H618.977V633.247Z" fill="#EEEEEE"/>
<path d="M20.3711 68.3076H40.6987L20.3711 49.7533V68.3076Z" fill="#EEEEEE"/>
<path d="M20.3711 0V18.5543L74.8762 68.2998H115.531L40.6987 0H20.3711Z" fill="#EEEEEE"/>
<path d="M74.8145 0L149.647 68.2998H169.975V49.7468L115.471 0H74.8145Z" fill="#EEEEEE"/>
<path d="M149.629 0L169.958 18.5543V0H149.629Z" fill="#EEEEEE"/>
<path d="M319.677 68.3062V49.7533L299.35 68.3062H319.677Z" fill="#EEEEEE"/>
<path d="M299.366 0L224.535 68.2998H265.189L319.694 18.5543V0H299.366Z" fill="#EEEEEE"/>
<path d="M224.505 0L170 49.7468V68.2998H190.328L265.162 0H224.505Z" fill="#EEEEEE"/>
<path d="M170 0V18.5543L190.329 0H170Z" fill="#EEEEEE"/>
<path d="M319.629 68.3062H339.956L319.629 49.7533V68.3062Z" fill="#EEEEEE"/>
<path d="M319.629 0V18.5543L374.136 68.2998H414.789L339.956 0H319.629Z" fill="#EEEEEE"/>
<path d="M374.164 0L448.995 68.2998H469.323V49.7468L414.819 0H374.164Z" fill="#EEEEEE"/>
<path d="M448.979 0L469.306 18.5543V0H448.979Z" fill="#EEEEEE"/>
<path d="M469.348 68.3062H489.675L469.348 49.7533V68.3062Z" fill="#EEEEEE"/>
<path d="M469.348 0V18.5543L523.853 68.2998H564.508L489.675 0H469.348Z" fill="#EEEEEE"/>
<path d="M523.793 0L598.626 68.2998H618.952V49.7468L564.448 0H523.793Z" fill="#EEEEEE"/>
<path d="M598.697 0L619.025 18.5543V0H598.697Z" fill="#EEEEEE"/>
<path d="M748.326 68.3062H768.655V49.7533L748.326 68.3062Z" fill="#EEEEEE"/>
<path d="M748.344 0L673.512 68.2998H714.167L768.673 18.5543V0H748.344Z" fill="#EEEEEE"/>
<path d="M673.482 0L618.977 49.7468V68.2998H639.304L714.137 0H673.482Z" fill="#EEEEEE"/>
<path d="M618.977 0V18.5543L639.306 0H618.977Z" fill="#EEEEEE"/>
<path d="M618.977 614.696H639.304L618.977 596.143V614.696Z" fill="#EEEEEE"/>
<path d="M619.025 564.943L673.529 614.689H714.185L619.025 527.837V564.943Z" fill="#EEEEEE"/>
<path d="M618.977 478.107V496.66L748.314 614.706H768.643V596.153L639.306 478.107H618.977Z" fill="#EEEEEE"/>
<path d="M673.512 478.107L768.671 564.959L768.671 527.853L714.167 478.107L673.512 478.107Z" fill="#EEEEEE"/>
<path d="M748.326 478.107L768.655 496.66V478.107H748.326Z" fill="#EEEEEE"/>
<path d="M618.977 478.109H639.304L618.977 459.556V478.109Z" fill="#EEEEEE"/>
<path d="M619.025 428.356L673.529 478.102H714.185L619.025 391.25V428.356Z" fill="#EEEEEE"/>
<path d="M618.977 341.499V360.052L748.314 478.098H768.643V459.545L639.306 341.499H618.977Z" fill="#EEEEEE"/>
<path d="M673.512 341.499L768.671 428.351L768.671 391.247L714.167 341.499L673.512 341.499Z" fill="#EEEEEE"/>
<path d="M748.326 341.499L768.655 360.052V341.499H748.326Z" fill="#EEEEEE"/>
<path d="M618.977 341.501H639.304L618.977 322.948V341.501Z" fill="#EEEEEE"/>
<path d="M619.025 291.748L673.529 341.494H714.185L619.025 254.642V291.748Z" fill="#EEEEEE"/>
<path d="M618.977 204.891V223.444L748.314 341.491H768.643V322.938L639.306 204.891H618.977Z" fill="#EEEEEE"/>
<path d="M673.512 204.891L768.671 291.743V254.637L714.167 204.891H673.512Z" fill="#EEEEEE"/>
<path d="M748.326 204.891L768.655 223.444V204.891H748.326Z" fill="#EEEEEE"/>
<path d="M618.977 204.893H639.304L618.977 186.34V204.893Z" fill="#EEEEEE"/>
<path d="M619.025 155.161L673.529 204.907H714.185L619.025 118.055V155.161Z" fill="#EEEEEE"/>
<path d="M618.977 68.3039V86.8569L748.314 204.903H768.643V186.351L639.306 68.3039H618.977Z" fill="#EEEEEE"/>
<path d="M673.512 68.3039L768.671 155.156V118.05L714.167 68.3039H673.512Z" fill="#EEEEEE"/>
<path d="M748.326 68.3039L768.655 86.8569V68.3039H748.326Z" fill="#EEEEEE"/>
</svg>
