<svg width="1440" height="803" viewBox="0 0 1440 803" fill="none" xmlns="http://www.w3.org/2000/svg">
<path d="M-30 0L738.334 328.638L853.778 432.903L119.823 803H173.485L863.521 432.903L744.514 328.638L-20.1238 0H-30Z" fill="#134D5A"/>
<path d="M10.209 0L756.628 328.638L881.471 432.853L264.333 803H308.479L889.745 432.853L760.282 328.638L19.1785 0H10.209Z" fill="#134D5A"/>
<path d="M50.418 0L773.666 328.638L908.444 432.853L395.21 803H422.416L914.036 432.853L777.57 328.638L59.9947 0H50.418Z" fill="#134D5A"/>
<path d="M89.1367 0L789.213 328.638L930.896 432.853L505.927 803H534.862L936.846 432.853L793.37 328.638L99.3262 0H89.1367Z" fill="#134D5A"/>
<path d="M127.857 0L804.766 328.638L953.344 432.853L616.639 803H647.307L959.651 432.853L809.166 328.638L138.654 0H127.857Z" fill="#134D5A"/>
<path d="M166.576 0L820.311 328.638L975.793 432.853L727.352 803H759.751L982.452 432.853L824.963 328.638L177.983 0H166.576Z" fill="#134D5A"/>
<path d="M206.785 0L837.349 328.638L999.729 432.853L839.556 803H873.687L1006.75 432.853L842.248 328.638L218.799 0H206.785Z" fill="#134D5A"/>
<path d="M245.504 0L852.897 328.638L1022.17 432.853L950.269 803H986.131L1029.55 432.853L858.045 328.638L258.131 0H245.504Z" fill="#134D5A"/>
<path d="M284.225 0L868.446 328.638L1044.63 432.853L1060.98 803H1098.58L1052.36 432.853L873.845 328.638L297.458 0H284.225Z" fill="#134D5A"/>
<path d="M322.943 0L883.994 328.638L1068.38 431.339L1171.7 803H1211.27L1081.78 429.031L889.642 328.638L336.79 0H322.943Z" fill="#134D5A"/>
<path d="M934.161 0L929.539 7.6254L927.945 0H926.076L928.835 12.0997L936.235 0H934.161Z" fill="#134D5A"/>
<path d="M944.81 0L926.96 28.5738L918.42 0H915.65L926.206 33.3754L947.189 0H944.81Z" fill="#134D5A"/>
<path d="M955.729 0L923.916 49.5221L906.825 0H903.736L923.103 54.6511L958.466 0H955.729Z" fill="#134D5A"/>
<path d="M966.286 0L919.658 70.4677L892.594 0H888.846L918.799 75.9267L969.438 0H966.286Z" fill="#134D5A"/>
<path d="M979.674 0L917.281 91.4189L878.448 0H873.953L916.372 97.1997L983.295 0H979.674Z" fill="#134D5A"/>
<path d="M993.187 0L913.964 112.367L861.422 0H856.082L913.002 118.475L997.357 0H993.187Z" fill="#134D5A"/>
<path d="M1007.12 0L909.849 133.316L841.537 0H835.234L908.837 139.751L1011.93 0H1007.12Z" fill="#134D5A"/>
<path d="M1023.31 0L906.602 154.264L820.275 0H812.895L905.537 161.024L1028.85 0H1023.31Z" fill="#134D5A"/>
<path d="M1040.66 0L902.92 175.215L796.179 0H787.578L901.803 182.3L1047.06 0H1040.66Z" fill="#134D5A"/>
<path d="M1061.12 0L901.53 193.867L770.747 0H760.773L900.365 201.281L1068.54 0H1061.12Z" fill="#134D5A"/>
<path d="M413.785 0L895.438 309.324L1093.18 381.711L1296.76 803H1333.04L1089.77 359.537L895.508 306.783L423.459 0H413.785Z" fill="#134D5A"/>
<path d="M372.088 0L888.671 318.073L1089.08 414.179L1250.37 803H1273.14L1092.46 405.45L890.75 315.529L381.257 0H372.088Z" fill="#134D5A"/>
<path d="M456.973 0L896.972 298.192L1094.42 334.225L1370.32 803H1418.01L1096.55 316.575L897.044 295.446L467.148 0H456.973Z" fill="#134D5A"/>
<path d="M497.182 0L896.132 286.917L1093.28 286.481L1440.98 747.864V684.63L1093.56 262.34L896.213 283.96L507.859 0H497.182Z" fill="#134D5A"/>
<path d="M538.881 0L897.318 275.496L1094.16 238.687L1441.86 570.826V492.456L1094.16 219.949L897.404 272.315L550.06 0H538.881Z" fill="#134D5A"/>
<path d="M579.09 0L897.49 263.918L1094.02 190.89L1441.72 394.033V325.604L1092.46 169.817L897.581 260.517L590.774 0H579.09Z" fill="#134D5A"/>
<path d="M619.297 0L898.081 252.188L1094.3 143.074L1442 224.746V141.352L1094.3 122.836L898.178 248.551L631.485 0H619.297Z" fill="#134D5A"/>
<path d="M1383.85 0L1093.46 71.6854L897.666 236.418L670.708 0H658.018L897.56 240.293L1093.46 95.2412L1441.16 54.6649V0H1383.85Z" fill="#134D5A"/>
<path d="M1142.48 0L1094.45 23.5558L898.98 224.113L709.129 0H698.227L898.866 228.232L1094.45 47.3835L1231.43 0H1142.48Z" fill="#134D5A"/>
<path d="M1083.42 0L899.273 211.625L742.94 0H732.479L899.156 215.999L1097.84 0H1083.42Z" fill="#134D5A"/>
</svg>
