<svg width="504" height="845" viewBox="0 0 504 845" fill="none" xmlns="http://www.w3.org/2000/svg">
<path d="M-242.158 0.513794L335.112 345.838L495.996 455.343L427.656 844.283H461.739L503.005 455.343L340.006 345.838L-230.158 0.513794H-242.158Z" fill="#F5F5F5"/>
<path d="M-278.957 0.513794L320.335 345.838L474.663 455.343L322.433 844.283H354.872L481.332 455.343L324.992 345.838L-267.539 0.513794H-278.957Z" fill="#F5F5F5"/>
<path d="M-317.172 0.513794L304.143 345.838L451.914 455.343L215.794 844.283H246.586L458.243 455.343L308.564 345.838L-306.331 0.513794H-317.172Z" fill="#F5F5F5"/>
<path d="M-353.973 0.513794L289.366 345.838L430.576 455.343L110.569 844.283H139.716L436.571 455.343L293.548 345.838L-343.711 0.513794H-353.973Z" fill="#F5F5F5"/>
<path d="M-390.771 0.513794L274.587 345.838L409.243 455.343L5.34875 844.283H32.8491L414.898 455.343L278.537 345.838L-381.087 0.513794H-390.771Z" fill="#F5F5F5"/>
<path d="M-427.57 0.513794L259.81 345.838L387.904 455.343L-99.877 844.283H-74.0209L393.219 455.343L263.52 345.838L-418.469 0.513794H-427.57Z" fill="#F5F5F5"/>
<path d="M-465.785 0.513794L243.617 345.838L362.269 455.343L-224.264 844.283H-182.307L370.133 455.343L247.09 345.838L-457.26 0.513794H-465.785Z" fill="#F5F5F5"/>
<path d="M-504 0.513794L226.23 345.838L335.95 455.396L-361.607 844.283H-310.607L345.21 455.396L232.104 345.838L-494.614 0.513794H-504Z" fill="#F5F5F5"/>
</svg>
